<?xml version="1.0" encoding="utf-8"?>
<!-- Generator: Adobe Illustrator 26.0.1, SVG Export Plug-In . SVG Version: 6.00 Build 0)  -->
<svg version="1.1" id="Capa_1" xmlns="http://www.w3.org/2000/svg" xmlns:xlink="http://www.w3.org/1999/xlink" x="0px" y="0px"
	 viewBox="0 0 1080 1920" style="enable-background:new 0 0 1080 1920;" xml:space="preserve">
<style type="text/css">
	.st0{fill:#6E756E;}
	.st1{fill:#2F3332;}
</style>
<g>
	<g>
		<path class="st0" d="M502.5,147.15v-16.49h2.15v16.49H502.5z"/>
		<path class="st0" d="M513.01,147.51c-1.1,0-2.04-0.19-2.82-0.58s-1.37-0.9-1.76-1.53c-0.39-0.63-0.59-1.31-0.59-2.04l2.01,0.01
			c0.02,0.46,0.15,0.88,0.39,1.24c0.25,0.37,0.61,0.66,1.08,0.87c0.47,0.21,1.04,0.32,1.7,0.32c0.61,0,1.13-0.08,1.55-0.25
			c0.42-0.17,0.74-0.4,0.96-0.7c0.22-0.3,0.33-0.67,0.33-1.08c0-0.44-0.12-0.8-0.36-1.06c-0.24-0.26-0.58-0.46-1.01-0.61
			s-1.01-0.27-1.74-0.39c-0.87-0.13-1.62-0.32-2.24-0.58c-0.62-0.26-1.12-0.64-1.51-1.14c-0.38-0.5-0.58-1.14-0.58-1.93
			c0-0.7,0.17-1.31,0.5-1.86c0.33-0.54,0.83-0.97,1.5-1.29s1.48-0.48,2.43-0.48c0.94,0,1.77,0.16,2.49,0.48s1.28,0.76,1.67,1.32
			c0.39,0.56,0.59,1.2,0.59,1.91h-2.05c-0.02-0.39-0.15-0.73-0.36-1.03c-0.22-0.3-0.53-0.53-0.93-0.69
			c-0.4-0.16-0.87-0.24-1.41-0.24c-0.52,0-0.95,0.08-1.31,0.24c-0.36,0.16-0.62,0.38-0.79,0.66c-0.17,0.28-0.26,0.59-0.26,0.93
			c0,0.4,0.09,0.72,0.26,0.96c0.17,0.25,0.47,0.45,0.88,0.6c0.42,0.15,1.02,0.3,1.82,0.44c0.07,0.01,0.13,0.02,0.2,0.03
			c0.07,0.01,0.14,0.02,0.2,0.03c0.87,0.15,1.58,0.35,2.16,0.58s1.05,0.59,1.42,1.08s0.56,1.13,0.56,1.93c0,0.82-0.21,1.53-0.62,2.1
			c-0.42,0.58-1,1.01-1.75,1.3C514.88,147.36,514,147.51,513.01,147.51z"/>
		<path class="st0" d="M526.23,147.51c-1.2,0-2.28-0.29-3.26-0.87c-0.98-0.58-1.75-1.37-2.32-2.37s-0.85-2.1-0.85-3.29
			s0.28-2.29,0.84-3.29c0.56-0.99,1.33-1.78,2.32-2.37c0.98-0.59,2.07-0.88,3.27-0.88c1.21,0,2.3,0.29,3.28,0.88
			s1.76,1.38,2.32,2.37c0.57,0.99,0.85,2.09,0.85,3.29s-0.28,2.29-0.84,3.29c-0.56,1-1.34,1.79-2.32,2.37
			S527.43,147.51,526.23,147.51z M526.25,145.54c0.8,0,1.53-0.2,2.2-0.59c0.67-0.4,1.19-0.94,1.57-1.64
			c0.38-0.7,0.57-1.47,0.57-2.34c0-0.86-0.19-1.63-0.57-2.33c-0.38-0.7-0.9-1.24-1.57-1.64c-0.67-0.4-1.4-0.6-2.2-0.6
			c-0.81,0-1.55,0.2-2.21,0.6c-0.67,0.4-1.19,0.95-1.58,1.64s-0.58,1.47-0.58,2.33c0,0.87,0.19,1.64,0.58,2.34s0.91,1.24,1.58,1.64
			C524.7,145.34,525.44,145.54,526.25,145.54z"/>
		<path class="st0" d="M540.06,147.15c-0.73,0-1.38-0.12-1.94-0.37c-0.57-0.25-1.03-0.71-1.4-1.39c-0.37-0.68-0.55-1.62-0.55-2.83
			v-5.95h-2.75v-1.83h2.75v-3.67l2.09-0.01v3.69h4.09v1.83h-4.09v6.05c0,0.72,0.1,1.28,0.31,1.69s0.47,0.68,0.79,0.82
			s0.69,0.21,1.12,0.21h1.87v1.77H540.06z"/>
		<path class="st0" d="M546.06,132.37c-0.27,0-0.52-0.06-0.73-0.18c-0.21-0.12-0.38-0.28-0.5-0.48s-0.18-0.42-0.18-0.67
			c0-0.24,0.06-0.46,0.18-0.67s0.28-0.36,0.5-0.48c0.21-0.12,0.46-0.18,0.75-0.18c0.28,0,0.53,0.06,0.75,0.18
			c0.22,0.12,0.39,0.28,0.5,0.48s0.18,0.42,0.18,0.67c0,0.25-0.06,0.48-0.18,0.68c-0.12,0.2-0.28,0.36-0.5,0.48
			C546.61,132.32,546.35,132.37,546.06,132.37z M545.03,134.79c0.24,0,0.48,0,0.72,0s0.47,0,0.7,0c0.23,0,0.45,0,0.66,0v12.37h-2.08
			V134.79z"/>
		<path class="st0" d="M551.12,151.37v-16.59h2v2.64c0.28-0.57,0.66-1.08,1.14-1.53c0.48-0.45,1.03-0.8,1.64-1.06
			c0.62-0.26,1.28-0.39,1.98-0.39c1.14,0,2.17,0.29,3.1,0.87s1.66,1.37,2.2,2.36c0.53,0.99,0.8,2.09,0.8,3.29s-0.27,2.29-0.8,3.29
			c-0.53,1-1.27,1.79-2.2,2.37s-1.96,0.87-3.08,0.87c-0.67,0-1.31-0.12-1.93-0.36s-1.16-0.58-1.65-1.02s-0.87-0.96-1.16-1.56
			l0.04,1.39v5.41H551.12z M557.55,145.57c0.79,0,1.52-0.2,2.19-0.59c0.67-0.39,1.2-0.94,1.59-1.63c0.39-0.69,0.59-1.49,0.59-2.38
			c0-0.87-0.19-1.66-0.58-2.35s-0.92-1.24-1.58-1.64s-1.4-0.59-2.2-0.59c-0.79,0-1.52,0.2-2.19,0.61s-1.19,0.96-1.58,1.66
			c-0.39,0.7-0.58,1.47-0.58,2.31c0,0.86,0.2,1.63,0.59,2.33c0.39,0.7,0.92,1.25,1.59,1.66
			C556.04,145.36,556.76,145.57,557.55,145.57z"/>
		<path class="st0" d="M572.34,147.51c-1.2,0-2.28-0.29-3.26-0.87c-0.98-0.58-1.75-1.37-2.32-2.37s-0.85-2.1-0.85-3.29
			s0.28-2.29,0.84-3.29c0.56-0.99,1.33-1.78,2.32-2.37c0.98-0.59,2.07-0.88,3.27-0.88c1.21,0,2.3,0.29,3.28,0.88
			s1.76,1.38,2.32,2.37c0.57,0.99,0.85,2.09,0.85,3.29s-0.28,2.29-0.84,3.29c-0.56,1-1.34,1.79-2.32,2.37
			S573.54,147.51,572.34,147.51z M572.36,145.54c0.8,0,1.53-0.2,2.2-0.59c0.67-0.4,1.19-0.94,1.57-1.64
			c0.38-0.7,0.57-1.47,0.57-2.34c0-0.86-0.19-1.63-0.57-2.33c-0.38-0.7-0.9-1.24-1.57-1.64c-0.67-0.4-1.4-0.6-2.2-0.6
			c-0.81,0-1.55,0.2-2.21,0.6c-0.67,0.4-1.19,0.95-1.58,1.64s-0.58,1.47-0.58,2.33c0,0.87,0.19,1.64,0.58,2.34s0.91,1.24,1.58,1.64
			C570.82,145.34,571.55,145.54,572.36,145.54z"/>
	</g>
</g>
<g>
	<path class="st0" d="M458.02,619.61v-16.49h2.15v14.55h8.01v1.94H458.02z"/>
	<path class="st0" d="M475.48,619.96c-1.2,0-2.28-0.29-3.26-0.87c-0.98-0.58-1.75-1.37-2.32-2.37s-0.85-2.1-0.85-3.29
		s0.28-2.29,0.84-3.29c0.56-0.99,1.33-1.78,2.32-2.37c0.98-0.59,2.07-0.88,3.27-0.88c1.21,0,2.3,0.29,3.28,0.88s1.76,1.38,2.32,2.37
		c0.57,0.99,0.85,2.09,0.85,3.29s-0.28,2.29-0.84,3.29c-0.56,1-1.34,1.79-2.32,2.37S476.68,619.96,475.48,619.96z M475.5,617.99
		c0.8,0,1.53-0.2,2.2-0.59c0.67-0.4,1.19-0.94,1.57-1.64c0.38-0.7,0.57-1.47,0.57-2.34c0-0.86-0.19-1.63-0.57-2.33
		c-0.38-0.7-0.9-1.24-1.57-1.64c-0.67-0.4-1.4-0.6-2.2-0.6c-0.81,0-1.55,0.2-2.21,0.6c-0.67,0.4-1.19,0.95-1.58,1.64
		s-0.58,1.47-0.58,2.33c0,0.87,0.19,1.64,0.58,2.34s0.91,1.24,1.58,1.64C473.96,617.8,474.69,617.99,475.5,617.99z"/>
	<path class="st0" d="M490.31,624.26c-1.31,0-2.4-0.22-3.28-0.65c-0.88-0.43-1.53-1-1.95-1.69c-0.42-0.7-0.66-1.44-0.71-2.24h1.98
		c0.09,0.53,0.28,1.01,0.56,1.42c0.29,0.42,0.71,0.75,1.27,1c0.56,0.25,1.27,0.38,2.13,0.38c1.02,0,1.86-0.21,2.52-0.61
		c0.66-0.41,1.14-0.95,1.44-1.62c0.3-0.67,0.46-1.42,0.46-2.24v-1.53c-0.28,0.61-0.67,1.14-1.15,1.58
		c-0.49,0.44-1.04,0.77-1.65,0.99c-0.61,0.22-1.28,0.33-2,0.33c-1.14,0-2.17-0.28-3.1-0.83s-1.65-1.3-2.18-2.25
		c-0.53-0.95-0.79-1.98-0.79-3.1s0.26-2.17,0.79-3.13s1.25-1.73,2.16-2.3c0.91-0.57,1.93-0.86,3.06-0.86c0.76,0,1.46,0.13,2.11,0.4
		c0.65,0.27,1.2,0.62,1.67,1.07c0.46,0.45,0.83,0.96,1.08,1.52v-2.66h2v10.71c0,1.19-0.24,2.26-0.72,3.21s-1.2,1.71-2.16,2.27
		C492.88,623.98,491.7,624.26,490.31,624.26z M490.28,617.53c0.79,0,1.52-0.2,2.19-0.59c0.67-0.39,1.2-0.92,1.59-1.58
		c0.39-0.66,0.59-1.39,0.59-2.17c0-0.78-0.19-1.5-0.58-2.16c-0.39-0.66-0.92-1.19-1.58-1.59c-0.67-0.4-1.4-0.59-2.19-0.59
		c-0.81,0-1.55,0.19-2.21,0.57s-1.19,0.9-1.58,1.56s-0.58,1.4-0.58,2.21c0,0.81,0.2,1.54,0.59,2.21c0.39,0.66,0.92,1.18,1.58,1.56
		C488.75,617.34,489.48,617.53,490.28,617.53z"/>
	<path class="st0" d="M506.1,619.96c-1.2,0-2.28-0.29-3.26-0.87c-0.98-0.58-1.75-1.37-2.32-2.37s-0.85-2.1-0.85-3.29
		s0.28-2.29,0.84-3.29c0.56-0.99,1.33-1.78,2.32-2.37c0.98-0.59,2.07-0.88,3.27-0.88c1.21,0,2.3,0.29,3.28,0.88s1.76,1.38,2.32,2.37
		c0.57,0.99,0.85,2.09,0.85,3.29s-0.28,2.29-0.84,3.29c-0.56,1-1.34,1.79-2.32,2.37S507.31,619.96,506.1,619.96z M506.13,617.99
		c0.8,0,1.53-0.2,2.2-0.59c0.67-0.4,1.19-0.94,1.57-1.64c0.38-0.7,0.57-1.47,0.57-2.34c0-0.86-0.19-1.63-0.57-2.33
		c-0.38-0.7-0.9-1.24-1.57-1.64c-0.67-0.4-1.4-0.6-2.2-0.6c-0.81,0-1.55,0.2-2.21,0.6c-0.67,0.4-1.19,0.95-1.58,1.64
		s-0.58,1.47-0.58,2.33c0,0.87,0.19,1.64,0.58,2.34s0.91,1.24,1.58,1.64C504.58,617.8,505.32,617.99,506.13,617.99z"/>
	<path class="st0" d="M521.65,623.83v-16.59h2v2.64c0.28-0.57,0.66-1.08,1.14-1.53c0.48-0.45,1.03-0.8,1.64-1.06
		c0.62-0.26,1.28-0.39,1.98-0.39c1.14,0,2.17,0.29,3.1,0.87s1.66,1.37,2.2,2.36c0.53,0.99,0.8,2.09,0.8,3.29s-0.27,2.29-0.8,3.29
		c-0.53,1-1.27,1.79-2.2,2.37s-1.96,0.87-3.08,0.87c-0.67,0-1.31-0.12-1.93-0.36s-1.16-0.58-1.65-1.02s-0.87-0.96-1.16-1.56
		l0.04,1.39v5.41H521.65z M528.08,618.02c0.79,0,1.52-0.2,2.19-0.59c0.67-0.39,1.2-0.94,1.59-1.63c0.39-0.69,0.59-1.49,0.59-2.38
		c0-0.87-0.19-1.66-0.58-2.35s-0.92-1.24-1.58-1.64s-1.4-0.59-2.2-0.59c-0.79,0-1.52,0.2-2.19,0.61s-1.19,0.96-1.58,1.66
		c-0.39,0.7-0.58,1.47-0.58,2.31c0,0.86,0.2,1.63,0.59,2.33c0.39,0.7,0.92,1.25,1.59,1.66
		C526.57,617.82,527.29,618.02,528.08,618.02z"/>
	<path class="st0" d="M537.48,619.61v-12.37h2.01V610c0.21-0.57,0.5-1.07,0.85-1.48s0.79-0.73,1.28-0.95
		c0.49-0.22,1.03-0.33,1.62-0.33h1.2v1.83h-1.09c-0.73,0-1.38,0.19-1.95,0.56c-0.57,0.38-1.02,0.92-1.35,1.63
		c-0.32,0.71-0.48,1.55-0.48,2.52v5.82H537.48z"/>
	<path class="st0" d="M547.92,604.83c-0.27,0-0.52-0.06-0.73-0.18c-0.21-0.12-0.38-0.28-0.5-0.48s-0.18-0.42-0.18-0.67
		c0-0.24,0.06-0.46,0.18-0.67s0.28-0.36,0.5-0.48c0.21-0.12,0.46-0.18,0.75-0.18c0.28,0,0.53,0.06,0.75,0.18
		c0.22,0.12,0.39,0.28,0.5,0.48s0.18,0.42,0.18,0.67c0,0.25-0.06,0.48-0.18,0.68c-0.12,0.2-0.28,0.36-0.5,0.48
		C548.47,604.77,548.22,604.83,547.92,604.83z M546.89,607.24c0.24,0,0.48,0,0.72,0s0.47,0,0.7,0c0.23,0,0.45,0,0.66,0v12.37h-2.08
		V607.24z"/>
	<path class="st0" d="M552.98,619.61v-12.37h2v2.39c0.23-0.53,0.58-1,1.03-1.41c0.45-0.42,0.98-0.74,1.59-0.98s1.25-0.35,1.94-0.35
		c1.09,0,2.01,0.23,2.76,0.68c0.75,0.45,1.31,1.13,1.69,2.02c0.38,0.89,0.56,2,0.56,3.32v6.71h-2.09v-6.67c0-1.39-0.3-2.42-0.9-3.09
		c-0.6-0.67-1.45-1.01-2.56-1.01c-0.7,0-1.34,0.17-1.95,0.52c-0.6,0.35-1.09,0.85-1.45,1.5c-0.36,0.65-0.55,1.4-0.55,2.25v6.5
		H552.98z"/>
	<path class="st0" d="M573.68,619.96c-1.17,0-2.24-0.29-3.2-0.88s-1.72-1.38-2.28-2.38c-0.56-1-0.84-2.09-0.84-3.28
		s0.28-2.28,0.84-3.28c0.56-1,1.32-1.79,2.28-2.38s2.03-0.88,3.2-0.88c0.96,0,1.85,0.19,2.66,0.56c0.81,0.38,1.5,0.9,2.06,1.56
		c0.57,0.66,0.97,1.42,1.21,2.28h-2.15c-0.31-0.78-0.81-1.39-1.48-1.81c-0.67-0.42-1.44-0.63-2.29-0.63c-0.73,0-1.42,0.19-2.07,0.56
		s-1.18,0.91-1.58,1.6c-0.4,0.69-0.6,1.49-0.6,2.41s0.2,1.72,0.6,2.41s0.93,1.23,1.58,1.61s1.34,0.56,2.07,0.56
		c0.56,0,1.08-0.09,1.58-0.29c0.49-0.19,0.93-0.47,1.31-0.85s0.67-0.85,0.88-1.41h2.13c-0.24,0.89-0.63,1.67-1.19,2.35
		c-0.56,0.68-1.25,1.21-2.06,1.58S574.64,619.96,573.68,619.96z"/>
	<path class="st0" d="M583.41,604.83c-0.27,0-0.52-0.06-0.73-0.18c-0.21-0.12-0.38-0.28-0.5-0.48s-0.18-0.42-0.18-0.67
		c0-0.24,0.06-0.46,0.18-0.67s0.28-0.36,0.5-0.48c0.21-0.12,0.46-0.18,0.75-0.18c0.28,0,0.53,0.06,0.75,0.18
		c0.22,0.12,0.39,0.28,0.5,0.48s0.18,0.42,0.18,0.67c0,0.25-0.06,0.48-0.18,0.68c-0.12,0.2-0.28,0.36-0.5,0.48
		C583.96,604.77,583.7,604.83,583.41,604.83z M582.38,607.24c0.24,0,0.48,0,0.72,0s0.47,0,0.7,0c0.23,0,0.45,0,0.66,0v12.37h-2.08
		V607.24z"/>
	<path class="st0" d="M588.47,623.83v-16.59h2v2.64c0.28-0.57,0.66-1.08,1.14-1.53c0.48-0.45,1.03-0.8,1.64-1.06
		c0.62-0.26,1.28-0.39,1.98-0.39c1.14,0,2.17,0.29,3.1,0.87s1.66,1.37,2.2,2.36c0.53,0.99,0.8,2.09,0.8,3.29s-0.27,2.29-0.8,3.29
		c-0.53,1-1.27,1.79-2.2,2.37s-1.96,0.87-3.08,0.87c-0.67,0-1.31-0.12-1.93-0.36s-1.16-0.58-1.65-1.02s-0.87-0.96-1.16-1.56
		l0.04,1.39v5.41H588.47z M594.9,618.02c0.79,0,1.52-0.2,2.19-0.59c0.67-0.39,1.2-0.94,1.59-1.63c0.39-0.69,0.59-1.49,0.59-2.38
		c0-0.87-0.19-1.66-0.58-2.35s-0.92-1.24-1.58-1.64s-1.4-0.59-2.2-0.59c-0.79,0-1.52,0.2-2.19,0.61s-1.19,0.96-1.58,1.66
		c-0.39,0.7-0.58,1.47-0.58,2.31c0,0.86,0.2,1.63,0.59,2.33c0.39,0.7,0.92,1.25,1.59,1.66C593.39,617.82,594.11,618.02,594.9,618.02
		z"/>
	<path class="st0" d="M609.24,619.96c-1.11,0-2.12-0.29-3.03-0.87s-1.63-1.37-2.16-2.37s-0.79-2.1-0.79-3.29
		c0-1.19,0.26-2.28,0.79-3.28c0.53-1,1.25-1.79,2.16-2.37s1.91-0.87,3.01-0.87c0.74,0,1.42,0.12,2.07,0.36
		c0.64,0.24,1.21,0.59,1.7,1.04c0.49,0.45,0.87,0.98,1.15,1.59v-2.66h2v12.37h-2v-2.63c-0.27,0.61-0.66,1.13-1.15,1.58
		c-0.49,0.45-1.05,0.79-1.7,1.04C610.65,619.84,609.97,619.96,609.24,619.96z M609.7,618.01c0.8,0,1.53-0.2,2.2-0.61
		s1.19-0.96,1.58-1.66c0.39-0.7,0.58-1.47,0.58-2.32c0-0.84-0.19-1.61-0.58-2.31c-0.39-0.7-0.92-1.25-1.58-1.66s-1.4-0.61-2.19-0.61
		c-0.8,0-1.53,0.2-2.2,0.59c-0.67,0.39-1.2,0.94-1.59,1.63c-0.39,0.7-0.59,1.48-0.59,2.35c0,0.89,0.2,1.68,0.59,2.38
		c0.39,0.7,0.92,1.24,1.59,1.62S608.92,618.01,609.7,618.01z"/>
	<path class="st0" d="M620.14,619.61v-17.1h2.08v17.1H620.14z"/>
</g>
<g>
	<path class="st0" d="M445.99,1109.67v-16.49h2.15v14.55h8.02v1.94H445.99z"/>
	<path class="st0" d="M463.45,1110.02c-1.2,0-2.28-0.29-3.26-0.87s-1.75-1.37-2.32-2.37c-0.56-1-0.85-2.1-0.85-3.29
		s0.28-2.29,0.84-3.29s1.33-1.78,2.32-2.37s2.07-0.88,3.27-0.88c1.21,0,2.3,0.29,3.28,0.88s1.76,1.38,2.32,2.37s0.85,2.09,0.85,3.29
		s-0.28,2.29-0.84,3.29s-1.34,1.79-2.32,2.37S464.65,1110.02,463.45,1110.02z M463.47,1108.06c0.8,0,1.54-0.2,2.2-0.59
		c0.67-0.4,1.19-0.94,1.57-1.64s0.57-1.47,0.57-2.34c0-0.86-0.19-1.63-0.57-2.33s-0.9-1.24-1.57-1.64c-0.67-0.4-1.4-0.6-2.2-0.6
		c-0.81,0-1.54,0.2-2.21,0.6c-0.67,0.4-1.19,0.95-1.58,1.64c-0.38,0.7-0.58,1.47-0.58,2.33c0,0.87,0.19,1.64,0.58,2.34
		c0.38,0.7,0.91,1.24,1.58,1.64C461.93,1107.86,462.66,1108.06,463.47,1108.06z"/>
	<path class="st0" d="M478.28,1114.33c-1.31,0-2.4-0.22-3.28-0.65c-0.88-0.43-1.53-1-1.95-1.69c-0.42-0.7-0.66-1.44-0.71-2.24h1.98
		c0.09,0.53,0.28,1.01,0.56,1.42c0.29,0.42,0.71,0.75,1.27,1c0.56,0.25,1.27,0.38,2.13,0.38c1.02,0,1.86-0.21,2.52-0.61
		c0.66-0.41,1.14-0.95,1.44-1.62s0.46-1.42,0.46-2.24v-1.53c-0.28,0.61-0.67,1.14-1.15,1.58s-1.04,0.77-1.65,0.99
		c-0.62,0.22-1.28,0.33-2,0.33c-1.14,0-2.17-0.28-3.1-0.83s-1.65-1.3-2.18-2.25c-0.53-0.95-0.79-1.98-0.79-3.1s0.27-2.17,0.79-3.13
		s1.25-1.73,2.16-2.3c0.91-0.57,1.93-0.86,3.05-0.86c0.76,0,1.46,0.13,2.11,0.4c0.65,0.27,1.2,0.62,1.67,1.07
		c0.46,0.45,0.83,0.96,1.09,1.52v-2.66h2v10.71c0,1.19-0.24,2.26-0.71,3.21s-1.2,1.71-2.16,2.27
		C480.86,1114.04,479.68,1114.33,478.28,1114.33z M478.25,1107.6c0.79,0,1.52-0.2,2.19-0.59c0.67-0.39,1.2-0.92,1.59-1.58
		c0.39-0.66,0.59-1.39,0.59-2.17c0-0.78-0.2-1.5-0.58-2.16c-0.39-0.66-0.92-1.19-1.58-1.59c-0.67-0.4-1.4-0.59-2.19-0.59
		c-0.81,0-1.55,0.19-2.21,0.57c-0.67,0.38-1.2,0.9-1.58,1.56c-0.39,0.66-0.58,1.4-0.58,2.21c0,0.81,0.2,1.54,0.59,2.21
		c0.39,0.66,0.92,1.18,1.58,1.56S477.45,1107.6,478.25,1107.6z"/>
	<path class="st0" d="M494.08,1110.02c-1.2,0-2.28-0.29-3.26-0.87c-0.98-0.58-1.75-1.37-2.31-2.37c-0.57-1-0.85-2.1-0.85-3.29
		s0.28-2.29,0.84-3.29c0.56-0.99,1.33-1.78,2.31-2.37c0.98-0.59,2.07-0.88,3.27-0.88c1.21,0,2.3,0.29,3.28,0.88s1.76,1.38,2.32,2.37
		c0.56,0.99,0.85,2.09,0.85,3.29s-0.28,2.29-0.84,3.29c-0.56,1-1.34,1.79-2.32,2.37S495.28,1110.02,494.08,1110.02z M494.1,1108.06
		c0.8,0,1.53-0.2,2.2-0.59c0.67-0.4,1.19-0.94,1.57-1.64c0.38-0.7,0.57-1.47,0.57-2.34c0-0.86-0.19-1.63-0.57-2.33
		c-0.38-0.7-0.9-1.24-1.57-1.64c-0.67-0.4-1.4-0.6-2.2-0.6c-0.81,0-1.55,0.2-2.21,0.6c-0.67,0.4-1.19,0.95-1.58,1.64
		c-0.38,0.7-0.58,1.47-0.58,2.33c0,0.87,0.19,1.64,0.58,2.34c0.38,0.7,0.91,1.24,1.58,1.64
		C492.55,1107.86,493.29,1108.06,494.1,1108.06z"/>
	<path class="st0" d="M514.56,1110.02c-1.11,0-2.12-0.29-3.03-0.87c-0.91-0.58-1.63-1.37-2.16-2.37s-0.79-2.1-0.79-3.29
		c0-1.19,0.27-2.28,0.79-3.28c0.53-1,1.25-1.79,2.16-2.37c0.91-0.58,1.91-0.87,3.01-0.87c0.73,0,1.42,0.12,2.07,0.36
		c0.64,0.24,1.21,0.59,1.7,1.04s0.87,0.98,1.15,1.59v-2.66h2v12.37h-2v-2.63c-0.28,0.61-0.66,1.13-1.15,1.58s-1.05,0.79-1.7,1.04
		C515.97,1109.9,515.28,1110.02,514.56,1110.02z M515.02,1108.07c0.8,0,1.53-0.2,2.2-0.61c0.67-0.4,1.2-0.96,1.58-1.66
		c0.39-0.7,0.58-1.47,0.58-2.32c0-0.84-0.2-1.61-0.58-2.31c-0.39-0.7-0.92-1.25-1.58-1.66c-0.67-0.4-1.4-0.61-2.19-0.61
		c-0.8,0-1.53,0.2-2.2,0.59c-0.67,0.39-1.2,0.94-1.59,1.63s-0.59,1.48-0.59,2.35c0,0.89,0.2,1.68,0.59,2.38
		c0.39,0.7,0.92,1.24,1.59,1.62C513.51,1107.87,514.23,1108.07,515.02,1108.07z"/>
	<path class="st0" d="M525.46,1109.67v-17.1h2.08v17.1H525.46z"/>
	<path class="st0" d="M536.32,1109.67c-0.73,0-1.38-0.12-1.94-0.37c-0.57-0.25-1.03-0.71-1.4-1.39c-0.37-0.68-0.55-1.62-0.55-2.83
		v-5.95h-2.75v-1.83h2.75v-3.67l2.09-0.01v3.69h4.09v1.83h-4.09v6.05c0,0.72,0.1,1.28,0.31,1.69c0.21,0.4,0.47,0.68,0.79,0.82
		c0.32,0.14,0.69,0.21,1.12,0.21h1.87v1.77H536.32z"/>
	<path class="st0" d="M550.13,1102.19c-0.04-0.57-0.25-1.11-0.62-1.62c-0.37-0.5-0.86-0.91-1.46-1.21c-0.6-0.3-1.25-0.45-1.93-0.45
		c-0.74,0-1.44,0.18-2.07,0.53c-0.64,0.36-1.15,0.87-1.53,1.55c-0.38,0.68-0.58,1.48-0.58,2.42c0,0.92,0.19,1.74,0.57,2.44
		c0.38,0.71,0.89,1.25,1.53,1.64c0.64,0.38,1.33,0.58,2.07,0.58c0.56,0,1.06-0.08,1.51-0.24c0.45-0.16,0.84-0.4,1.16-0.72
		c0.33-0.32,0.58-0.71,0.76-1.17h2.34c-0.23,0.76-0.63,1.45-1.18,2.07c-0.55,0.62-1.22,1.11-2.01,1.46
		c-0.79,0.36-1.63,0.53-2.54,0.53c-1.17,0-2.24-0.29-3.2-0.87c-0.96-0.58-1.71-1.37-2.27-2.36c-0.55-1-0.83-2.09-0.83-3.29
		c0-1.19,0.28-2.28,0.83-3.28c0.55-1,1.31-1.79,2.27-2.38c0.96-0.59,2.02-0.88,3.2-0.88c1.15,0,2.19,0.29,3.12,0.86
		s1.67,1.34,2.2,2.29c0.53,0.95,0.79,1.98,0.79,3.08c0,0.11,0,0.22-0.01,0.36c-0.01,0.13-0.02,0.3-0.02,0.49h-10.66l0.1-1.84H550.13
		z"/>
	<path class="st0" d="M555.03,1109.67v-12.37h2.01v2.76c0.21-0.57,0.49-1.07,0.85-1.48s0.79-0.73,1.28-0.95
		c0.49-0.22,1.04-0.33,1.62-0.33h1.2v1.83h-1.09c-0.73,0-1.38,0.19-1.95,0.56c-0.57,0.38-1.02,0.92-1.35,1.63
		c-0.32,0.71-0.48,1.55-0.48,2.52v5.82H555.03z"/>
	<path class="st0" d="M564.44,1109.67v-12.37h2v2.39c0.23-0.53,0.58-1,1.03-1.41c0.45-0.42,0.98-0.74,1.59-0.98
		c0.61-0.23,1.25-0.35,1.94-0.35c1.09,0,2.01,0.23,2.76,0.68s1.31,1.13,1.69,2.02c0.38,0.89,0.56,2,0.56,3.32v6.71h-2.09V1103
		c0-1.39-0.3-2.42-0.9-3.09c-0.6-0.67-1.45-1.01-2.56-1.01c-0.7,0-1.34,0.17-1.95,0.52c-0.6,0.35-1.09,0.85-1.45,1.5
		s-0.54,1.4-0.54,2.25v6.5H564.44z"/>
	<path class="st0" d="M584.8,1110.02c-1.11,0-2.12-0.29-3.03-0.87c-0.91-0.58-1.63-1.37-2.16-2.37s-0.79-2.1-0.79-3.29
		c0-1.19,0.27-2.28,0.79-3.28c0.53-1,1.25-1.79,2.16-2.37c0.91-0.58,1.91-0.87,3.01-0.87c0.73,0,1.42,0.12,2.07,0.36
		c0.64,0.24,1.21,0.59,1.7,1.04s0.87,0.98,1.15,1.59v-2.66h2v12.37h-2v-2.63c-0.28,0.61-0.66,1.13-1.15,1.58s-1.05,0.79-1.7,1.04
		C586.21,1109.9,585.52,1110.02,584.8,1110.02z M585.26,1108.07c0.8,0,1.53-0.2,2.2-0.61c0.67-0.4,1.2-0.96,1.58-1.66
		c0.39-0.7,0.58-1.47,0.58-2.32c0-0.84-0.2-1.61-0.58-2.31c-0.39-0.7-0.92-1.25-1.58-1.66c-0.67-0.4-1.4-0.61-2.19-0.61
		c-0.8,0-1.53,0.2-2.2,0.59c-0.67,0.39-1.2,0.94-1.59,1.63s-0.59,1.48-0.59,2.35c0,0.89,0.2,1.68,0.59,2.38
		c0.39,0.7,0.92,1.24,1.59,1.62C583.75,1107.87,584.47,1108.07,585.26,1108.07z"/>
	<path class="st0" d="M600.47,1109.67c-0.73,0-1.38-0.12-1.94-0.37c-0.56-0.25-1.03-0.71-1.4-1.39c-0.37-0.68-0.55-1.62-0.55-2.83
		v-5.95h-2.75v-1.83h2.75v-3.67l2.09-0.01v3.69h4.09v1.83h-4.09v6.05c0,0.72,0.1,1.28,0.31,1.69c0.21,0.4,0.47,0.68,0.79,0.82
		c0.32,0.14,0.69,0.21,1.12,0.21h1.87v1.77H600.47z"/>
	<path class="st0" d="M606.47,1094.89c-0.27,0-0.52-0.06-0.73-0.18c-0.21-0.12-0.38-0.28-0.5-0.48s-0.18-0.42-0.18-0.67
		c0-0.24,0.06-0.46,0.18-0.67s0.28-0.36,0.5-0.48c0.21-0.12,0.46-0.18,0.74-0.18c0.28,0,0.54,0.06,0.75,0.18
		c0.22,0.12,0.39,0.28,0.5,0.48s0.18,0.42,0.18,0.67c0,0.25-0.06,0.48-0.18,0.68c-0.12,0.2-0.29,0.36-0.5,0.48
		C607.02,1094.83,606.77,1094.89,606.47,1094.89z M605.45,1097.3c0.24,0,0.48,0,0.72,0s0.47,0,0.7,0s0.45,0,0.66,0v12.37h-2.08
		V1097.3z"/>
	<path class="st0" d="M614.71,1109.67l-5.02-12.37h2.22l3.49,8.73l0.3,1.1l0.29-1.1l3.49-8.73h2.23l-5.03,12.37H614.71z"/>
	<path class="st0" d="M628.85,1110.02c-1.2,0-2.28-0.29-3.26-0.87c-0.98-0.58-1.75-1.37-2.31-2.37c-0.57-1-0.85-2.1-0.85-3.29
		s0.28-2.29,0.84-3.29c0.56-0.99,1.33-1.78,2.31-2.37c0.98-0.59,2.07-0.88,3.27-0.88c1.21,0,2.3,0.29,3.28,0.88s1.76,1.38,2.32,2.37
		c0.56,0.99,0.85,2.09,0.85,3.29s-0.28,2.29-0.84,3.29c-0.56,1-1.34,1.79-2.32,2.37S630.05,1110.02,628.85,1110.02z M628.87,1108.06
		c0.8,0,1.53-0.2,2.2-0.59c0.67-0.4,1.19-0.94,1.57-1.64c0.38-0.7,0.57-1.47,0.57-2.34c0-0.86-0.19-1.63-0.57-2.33
		c-0.38-0.7-0.9-1.24-1.57-1.64c-0.67-0.4-1.4-0.6-2.2-0.6c-0.81,0-1.55,0.2-2.21,0.6c-0.67,0.4-1.19,0.95-1.58,1.64
		c-0.38,0.7-0.58,1.47-0.58,2.33c0,0.87,0.19,1.64,0.58,2.34c0.38,0.7,0.91,1.24,1.58,1.64
		C627.32,1107.86,628.06,1108.06,628.87,1108.06z"/>
</g>
<g>
	<path class="st0" d="M433.75,1613.23v-16.49h2.15v14.55h8.01v1.94H433.75z"/>
	<path class="st0" d="M451.21,1613.58c-1.2,0-2.28-0.29-3.26-0.87c-0.98-0.58-1.75-1.37-2.32-2.37s-0.85-2.1-0.85-3.29
		s0.28-2.29,0.84-3.29c0.56-0.99,1.33-1.78,2.32-2.37c0.98-0.59,2.07-0.88,3.27-0.88c1.21,0,2.3,0.29,3.28,0.88s1.76,1.38,2.32,2.37
		c0.57,0.99,0.85,2.09,0.85,3.29s-0.28,2.29-0.84,3.29c-0.56,1-1.34,1.79-2.32,2.37S452.41,1613.58,451.21,1613.58z M451.23,1611.62
		c0.8,0,1.53-0.2,2.2-0.59c0.67-0.4,1.19-0.94,1.57-1.64c0.38-0.7,0.57-1.47,0.57-2.34c0-0.86-0.19-1.63-0.57-2.33
		c-0.38-0.7-0.9-1.24-1.57-1.64c-0.67-0.4-1.4-0.6-2.2-0.6c-0.81,0-1.55,0.2-2.21,0.6c-0.67,0.4-1.19,0.95-1.58,1.64
		s-0.58,1.47-0.58,2.33c0,0.87,0.19,1.64,0.58,2.34s0.91,1.24,1.58,1.64C449.69,1611.42,450.42,1611.62,451.23,1611.62z"/>
	<path class="st0" d="M466.04,1617.88c-1.31,0-2.4-0.22-3.28-0.65c-0.88-0.43-1.53-1-1.95-1.69c-0.42-0.7-0.66-1.44-0.71-2.24h1.98
		c0.09,0.53,0.28,1.01,0.56,1.42c0.29,0.42,0.71,0.75,1.27,1c0.56,0.25,1.27,0.38,2.13,0.38c1.02,0,1.86-0.21,2.52-0.61
		c0.66-0.41,1.14-0.95,1.44-1.62c0.3-0.67,0.46-1.42,0.46-2.24v-1.53c-0.28,0.61-0.67,1.14-1.15,1.58
		c-0.49,0.44-1.04,0.77-1.65,0.99c-0.61,0.22-1.28,0.33-2,0.33c-1.14,0-2.17-0.28-3.1-0.83s-1.65-1.3-2.18-2.25
		c-0.53-0.95-0.79-1.98-0.79-3.1s0.26-2.17,0.79-3.13s1.25-1.73,2.16-2.3c0.91-0.57,1.93-0.86,3.06-0.86c0.76,0,1.46,0.13,2.11,0.4
		c0.65,0.27,1.2,0.62,1.67,1.07c0.46,0.45,0.83,0.96,1.08,1.52v-2.66h2v10.71c0,1.19-0.24,2.26-0.72,3.21s-1.2,1.71-2.16,2.27
		C468.62,1617.6,467.44,1617.88,466.04,1617.88z M466.01,1611.15c0.79,0,1.52-0.2,2.19-0.59c0.67-0.39,1.2-0.92,1.59-1.58
		c0.39-0.66,0.59-1.39,0.59-2.17c0-0.78-0.19-1.5-0.58-2.16c-0.39-0.66-0.92-1.19-1.58-1.59c-0.67-0.4-1.4-0.59-2.19-0.59
		c-0.81,0-1.55,0.19-2.21,0.57s-1.19,0.9-1.58,1.56s-0.58,1.4-0.58,2.21c0,0.81,0.2,1.54,0.59,2.21c0.39,0.66,0.92,1.18,1.58,1.56
		C464.48,1610.96,465.21,1611.15,466.01,1611.15z"/>
	<path class="st0" d="M481.84,1613.58c-1.2,0-2.28-0.29-3.26-0.87c-0.98-0.58-1.75-1.37-2.32-2.37s-0.85-2.1-0.85-3.29
		s0.28-2.29,0.84-3.29c0.56-0.99,1.33-1.78,2.32-2.37c0.98-0.59,2.07-0.88,3.27-0.88c1.21,0,2.3,0.29,3.28,0.88s1.76,1.38,2.32,2.37
		c0.57,0.99,0.85,2.09,0.85,3.29s-0.28,2.29-0.84,3.29c-0.56,1-1.34,1.79-2.32,2.37S483.04,1613.58,481.84,1613.58z M481.86,1611.62
		c0.8,0,1.53-0.2,2.2-0.59c0.67-0.4,1.19-0.94,1.57-1.64c0.38-0.7,0.57-1.47,0.57-2.34c0-0.86-0.19-1.63-0.57-2.33
		c-0.38-0.7-0.9-1.24-1.57-1.64c-0.67-0.4-1.4-0.6-2.2-0.6c-0.81,0-1.55,0.2-2.21,0.6c-0.67,0.4-1.19,0.95-1.58,1.64
		s-0.58,1.47-0.58,2.33c0,0.87,0.19,1.64,0.58,2.34s0.91,1.24,1.58,1.64C480.31,1611.42,481.05,1611.62,481.86,1611.62z"/>
	<path class="st0" d="M500.56,1613.23l-5.02-12.37h2.22l3.49,8.73l0.3,1.1l0.29-1.1l3.49-8.73h2.23l-5.03,12.37H500.56z"/>
	<path class="st0" d="M518.54,1605.75c-0.04-0.57-0.25-1.11-0.62-1.62s-0.86-0.91-1.46-1.21c-0.6-0.3-1.25-0.45-1.93-0.45
		c-0.74,0-1.44,0.18-2.07,0.53c-0.64,0.36-1.15,0.87-1.53,1.55c-0.38,0.68-0.58,1.48-0.58,2.42c0,0.92,0.19,1.74,0.57,2.44
		c0.38,0.71,0.89,1.25,1.53,1.64c0.64,0.38,1.33,0.58,2.07,0.58c0.56,0,1.06-0.08,1.51-0.24s0.84-0.4,1.16-0.72
		c0.33-0.32,0.58-0.71,0.76-1.17h2.34c-0.23,0.76-0.63,1.45-1.18,2.07s-1.22,1.11-2.01,1.46s-1.63,0.53-2.54,0.53
		c-1.17,0-2.24-0.29-3.2-0.87c-0.96-0.58-1.71-1.37-2.27-2.36c-0.55-1-0.83-2.09-0.83-3.29c0-1.19,0.28-2.28,0.83-3.28
		c0.55-1,1.31-1.79,2.27-2.38c0.96-0.59,2.02-0.88,3.2-0.88c1.15,0,2.19,0.29,3.12,0.86s1.67,1.34,2.19,2.29
		c0.53,0.95,0.79,1.98,0.79,3.08c0,0.11,0,0.22-0.01,0.36c-0.01,0.13-0.02,0.3-0.02,0.49h-10.66l0.1-1.84H518.54z"/>
	<path class="st0" d="M523.44,1613.23v-12.37h2.01v2.76c0.21-0.57,0.5-1.07,0.85-1.48s0.79-0.73,1.28-0.95
		c0.49-0.22,1.03-0.33,1.62-0.33h1.2v1.83h-1.09c-0.73,0-1.38,0.19-1.95,0.56c-0.57,0.38-1.02,0.92-1.35,1.63
		c-0.32,0.71-0.48,1.55-0.48,2.52v5.82H523.44z"/>
	<path class="st0" d="M536.48,1613.58c-1.1,0-2.04-0.19-2.82-0.58s-1.37-0.9-1.76-1.53c-0.39-0.63-0.59-1.31-0.59-2.04l2.01,0.01
		c0.02,0.46,0.15,0.88,0.39,1.24c0.25,0.37,0.61,0.66,1.08,0.87c0.47,0.21,1.04,0.32,1.7,0.32c0.61,0,1.13-0.08,1.55-0.25
		c0.42-0.17,0.74-0.4,0.96-0.7c0.22-0.3,0.33-0.67,0.33-1.08c0-0.44-0.12-0.8-0.36-1.06c-0.24-0.26-0.58-0.46-1.01-0.61
		s-1.01-0.27-1.74-0.39c-0.87-0.13-1.62-0.32-2.24-0.58c-0.62-0.26-1.12-0.64-1.51-1.14c-0.38-0.5-0.58-1.14-0.58-1.93
		c0-0.7,0.17-1.31,0.5-1.86c0.33-0.54,0.83-0.97,1.5-1.29s1.48-0.48,2.43-0.48c0.94,0,1.77,0.16,2.49,0.48s1.28,0.76,1.67,1.32
		c0.39,0.56,0.59,1.2,0.59,1.91h-2.05c-0.02-0.39-0.15-0.73-0.36-1.03c-0.22-0.3-0.53-0.53-0.93-0.69c-0.4-0.16-0.87-0.24-1.41-0.24
		c-0.52,0-0.95,0.08-1.31,0.24c-0.36,0.16-0.62,0.38-0.79,0.66c-0.17,0.28-0.26,0.59-0.26,0.93c0,0.4,0.09,0.72,0.26,0.96
		c0.17,0.25,0.47,0.45,0.88,0.6c0.42,0.15,1.02,0.3,1.82,0.44c0.07,0.01,0.13,0.02,0.2,0.03c0.07,0.01,0.14,0.02,0.2,0.03
		c0.87,0.15,1.58,0.35,2.16,0.58s1.05,0.59,1.42,1.08s0.56,1.13,0.56,1.93c0,0.82-0.21,1.53-0.62,2.1c-0.42,0.58-1,1.01-1.75,1.3
		C538.35,1613.43,537.48,1613.58,536.48,1613.58z"/>
	<path class="st0" d="M545.35,1598.45c-0.27,0-0.52-0.06-0.73-0.18c-0.21-0.12-0.38-0.28-0.5-0.48s-0.18-0.42-0.18-0.67
		c0-0.24,0.06-0.46,0.18-0.67s0.28-0.36,0.5-0.48c0.21-0.12,0.46-0.18,0.75-0.18c0.28,0,0.53,0.06,0.75,0.18
		c0.22,0.12,0.39,0.28,0.5,0.48s0.18,0.42,0.18,0.67c0,0.25-0.06,0.48-0.18,0.68c-0.12,0.2-0.28,0.36-0.5,0.48
		C545.89,1598.39,545.64,1598.45,545.35,1598.45z M544.32,1600.86c0.24,0,0.48,0,0.72,0s0.47,0,0.7,0c0.23,0,0.45,0,0.66,0v12.37
		h-2.08V1600.86z"/>
	<path class="st0" d="M555.79,1613.58c-1.2,0-2.28-0.29-3.26-0.87c-0.98-0.58-1.75-1.37-2.32-2.37s-0.85-2.1-0.85-3.29
		s0.28-2.29,0.84-3.29c0.56-0.99,1.33-1.78,2.32-2.37c0.98-0.59,2.07-0.88,3.27-0.88c1.21,0,2.3,0.29,3.28,0.88s1.76,1.38,2.32,2.37
		c0.57,0.99,0.85,2.09,0.85,3.29s-0.28,2.29-0.84,3.29c-0.56,1-1.34,1.79-2.32,2.37S556.99,1613.58,555.79,1613.58z M555.81,1611.62
		c0.8,0,1.53-0.2,2.2-0.59c0.67-0.4,1.19-0.94,1.57-1.64c0.38-0.7,0.57-1.47,0.57-2.34c0-0.86-0.19-1.63-0.57-2.33
		c-0.38-0.7-0.9-1.24-1.57-1.64c-0.67-0.4-1.4-0.6-2.2-0.6c-0.81,0-1.55,0.2-2.21,0.6c-0.67,0.4-1.19,0.95-1.58,1.64
		s-0.58,1.47-0.58,2.33c0,0.87,0.19,1.64,0.58,2.34s0.91,1.24,1.58,1.64C554.26,1611.42,555,1611.62,555.81,1611.62z
		 M555.24,1599.41l1.87-3.43l1.59,0.55l-2,2.89H555.24z"/>
	<path class="st0" d="M565.2,1613.23v-12.37h2v2.39c0.23-0.53,0.58-1,1.03-1.41c0.45-0.42,0.98-0.74,1.59-0.98s1.25-0.35,1.94-0.35
		c1.09,0,2.01,0.23,2.76,0.68c0.75,0.45,1.31,1.13,1.69,2.02c0.38,0.89,0.56,2,0.56,3.32v6.71h-2.09v-6.67c0-1.39-0.3-2.42-0.9-3.09
		c-0.6-0.67-1.45-1.01-2.56-1.01c-0.7,0-1.34,0.17-1.95,0.52c-0.6,0.35-1.09,0.85-1.45,1.5c-0.36,0.65-0.55,1.4-0.55,2.25v6.5H565.2
		z"/>
	<path class="st0" d="M587.66,1613.23v-10.55h-2.64v-1.82h2.64v-0.87c0-0.7,0.13-1.34,0.4-1.94c0.27-0.6,0.67-1.08,1.22-1.44
		c0.55-0.36,1.22-0.55,2.02-0.55c0.29,0,0.57,0,0.82,0s0.52,0,0.79,0c0.07,0,0.15,0,0.22,0c0.08,0,0.16,0,0.24,0v1.76h-1.59
		c-0.41,0-0.77,0.1-1.08,0.31c-0.31,0.21-0.54,0.48-0.7,0.84c-0.16,0.35-0.24,0.75-0.24,1.19v0.7h3.52v1.82h-3.52v10.55H587.66z"/>
	<path class="st0" d="M596.54,1598.45c-0.27,0-0.52-0.06-0.73-0.18c-0.21-0.12-0.38-0.28-0.5-0.48s-0.18-0.42-0.18-0.67
		c0-0.24,0.06-0.46,0.18-0.67s0.28-0.36,0.5-0.48c0.21-0.12,0.46-0.18,0.75-0.18c0.28,0,0.53,0.06,0.75,0.18
		c0.22,0.12,0.39,0.28,0.5,0.48s0.18,0.42,0.18,0.67c0,0.25-0.06,0.48-0.18,0.68c-0.12,0.2-0.28,0.36-0.5,0.48
		C597.08,1598.39,596.83,1598.45,596.54,1598.45z M595.51,1600.86c0.24,0,0.48,0,0.72,0s0.47,0,0.7,0c0.23,0,0.45,0,0.66,0v12.37
		h-2.08V1600.86z"/>
	<path class="st0" d="M601.59,1613.23v-12.37h2.01v2.76c0.21-0.57,0.5-1.07,0.85-1.48s0.79-0.73,1.28-0.95
		c0.49-0.22,1.03-0.33,1.62-0.33h1.2v1.83h-1.09c-0.73,0-1.38,0.19-1.95,0.56c-0.57,0.38-1.02,0.92-1.35,1.63
		c-0.32,0.71-0.48,1.55-0.48,2.52v5.82H601.59z"/>
	<path class="st0" d="M611,1613.23v-12.37h1.96l0.02,2.39c0.22-0.52,0.54-0.98,0.95-1.4c0.42-0.42,0.91-0.74,1.48-0.98
		c0.57-0.24,1.18-0.36,1.83-0.36c1.03,0,1.89,0.23,2.58,0.68c0.69,0.45,1.22,1.13,1.57,2.02c0.35,0.89,0.53,2,0.53,3.32v6.71h-2.06
		v-6.67c0-1.39-0.28-2.42-0.83-3.09s-1.34-1.01-2.35-1.01c-0.63,0-1.22,0.18-1.78,0.54c-0.55,0.36-1,0.87-1.34,1.52
		c-0.34,0.65-0.51,1.38-0.51,2.2v6.5H611z M628.73,1606.56c0-1.38-0.28-2.41-0.83-3.09c-0.55-0.67-1.34-1.01-2.36-1.01
		c-0.62,0-1.21,0.18-1.77,0.54c-0.56,0.36-1,0.87-1.34,1.52c-0.34,0.65-0.5,1.38-0.5,2.2l-0.41-2.95c0.32-0.71,0.71-1.31,1.18-1.8
		s0.99-0.86,1.57-1.1c0.58-0.25,1.19-0.37,1.85-0.37c1.03,0,1.89,0.23,2.58,0.68c0.69,0.45,1.22,1.13,1.58,2.02
		c0.36,0.89,0.53,2,0.53,3.32v6.71h-2.07V1606.56z"/>
	<path class="st0" d="M639.59,1613.58c-1.11,0-2.12-0.29-3.03-0.87s-1.63-1.37-2.16-2.37s-0.79-2.1-0.79-3.29
		c0-1.19,0.26-2.28,0.79-3.28c0.53-1,1.25-1.79,2.16-2.37s1.91-0.87,3.01-0.87c0.74,0,1.42,0.12,2.07,0.36
		c0.64,0.24,1.21,0.59,1.7,1.04c0.49,0.45,0.87,0.98,1.15,1.59v-2.66h2v12.37h-2v-2.63c-0.27,0.61-0.66,1.13-1.15,1.58
		c-0.49,0.45-1.05,0.79-1.7,1.04C641.01,1613.46,640.32,1613.58,639.59,1613.58z M640.06,1611.63c0.8,0,1.53-0.2,2.2-0.61
		s1.19-0.96,1.58-1.66c0.39-0.7,0.58-1.47,0.58-2.32c0-0.84-0.19-1.61-0.58-2.31c-0.39-0.7-0.92-1.25-1.58-1.66s-1.4-0.61-2.19-0.61
		c-0.8,0-1.53,0.2-2.2,0.59c-0.67,0.39-1.2,0.94-1.59,1.63c-0.39,0.7-0.59,1.48-0.59,2.35c0,0.89,0.2,1.68,0.59,2.38
		c0.39,0.7,0.92,1.24,1.59,1.62S639.27,1611.63,640.06,1611.63z"/>
</g>
<path class="st1" d="M538.92,250.64c4.73,0,7.65-1.76,9.58-4.21c1.33,1.72,2.24,3.48,2.24,6.06c0,3.27-1.46,6.23-4.69,6.23
	c-1.37,0-1.85-0.52-1.85-1.2c0-0.3,0.04-0.56,0.17-0.86h1.42c0.17-0.6,0.26-1.12,0.26-1.55c0-1.76-1.07-2.62-2.79-2.62
	c-1.76,0-3.09,1.25-3.09,3.35c0,2.19,1.72,4.13,5.42,4.13c5.33,0,9.67-4.81,9.67-10.62c0-3.78-1.59-6.15-3.65-8.42
	c0.64-2.41,0.99-4.73,1.16-7.18h2.88v-1.16h-7.48v1.16h3.22c-0.09,2.02-0.39,4-0.95,6.1c-1.81-1.68-3.78-3.01-5.89-4.3
	c-1.63-1.03-3.09-1.98-4.51-2.96c4.43-1.81,6.92-4.26,6.92-7.48c0-3.27-2.36-5.46-7.35-5.46c-4.69,0-9.28,2.62-9.28,8.17
	c0,2.84,1.2,5.03,3.18,6.96c-4.04,1.59-5.97,3.95-5.97,7.65C527.53,248.36,532.65,250.64,538.92,250.64z M539.48,220.6
	c2.19,0,3.65,1.42,3.65,4.6c0,2.84-0.82,5.16-3.95,6.75c-2.88-2.15-4.08-4-4.08-6.66C535.1,221.8,537.42,220.6,539.48,220.6z
	 M534.41,235.68c1.98,1.76,4.6,3.27,7.48,5.16c2.45,1.59,4.21,2.84,5.63,4.43c-1.55,2.06-3.87,3.57-7.43,3.57
	c-4.34,0-7.05-2.06-7.05-7.52C533.03,238.35,533.46,236.84,534.41,235.68z M637.56,275.9c-1.38-0.47-3.76-1.39-5.31-2.66
	c-3.14-2.58-3.56-11.29-3.56-11.29l-0.03,0.05c-0.22-11.03-0.37-21.97-0.37-32.73c0-10.81,0.15-21.75,0.37-32.73l0.03,0.05
	c0,0,0.42-8.7,3.56-11.29c1.55-1.28,3.93-2.2,5.31-2.66c0.67-0.23,0.02-0.34,0.02-0.34l-8.62,0c0,0,0,0,0,0h-13.96h-22.14
	c-7.6,0-14.14,1.45-19.6,4.36c-5.46,2.91-9.57,6.71-12.35,11.41c-2.77,4.7-4.16,9.69-4.16,14.97c0,6.17,1.88,11.77,5.64,16.78
	c3.76,5.01,9.13,8.46,16.1,10.34c-5.01,1.61-9.01,4.12-12.01,7.51c-6.09,6.89-9.27,15.63-15.58,22.47
	c-5.83,6.31-12.93,11.43-20.75,14.98c-1.74,0.79-3.49,1.48-5.26,2.07c-14.53,4.89-30.13,3.48-44.85-1.01
	c-1.84-0.56-3.92-1.17-6.51-2.1c-1.31-0.47-2.31,0.22-1.3,1.04c3.19,2.6,6.31,4.48,9.91,6.4c16.61,8.87,39.23,12.64,57.12,5.48
	c13.23-5.29,22.83-16.73,28.97-29.27c0.69-1.41,1.56-3.26,2.62-5.58c1.79-4.03,3.38-7.34,4.76-9.93c2.44-4.57,6.21-8.63,11.34-10.04
	c2.82-0.78,5.91-0.99,8.81-1.3c2.62-0.28,3.91-0.38,7.2-0.59c0.66-0.04,0.65-0.31,0-0.37c-3.65-0.36-4.31-0.38-6.88-0.65
	c-5.95-0.63-12.58-1.26-17.39-5.16c-3.09-2.5-5.41-5.64-6.98-9.39c-1.56-3.76-2.35-7.74-2.35-11.94c0-4.74,1.01-9.22,3.02-13.42
	c2.02-4.2,5.01-7.6,8.99-10.2c3.98-2.59,8.79-3.89,14.43-3.89l19.33,0.13c0.27,12.17,0.4,25.37,0.4,39.59v9.37v4.32v18.3
	c-0.07,1.86-0.13,3.9-0.19,5.9c-0.2,2.25-0.95,8.28-3.49,10.38c-1.55,1.27-3.93,2.2-5.31,2.66c-0.67,0.23-0.02,0.34-0.02,0.34
	l8.62,0h13.81l8.62,0C637.59,276.24,638.23,276.12,637.56,275.9z M473.44,275.89c-1.38-0.47-3.76-1.39-5.31-2.66
	c-2.55-2.09-3.3-8.13-3.49-10.38c-0.06-2-0.11-4.04-0.19-5.9v-18.3v-4.32v-9.37c0-14.23,0.14-27.42,0.4-39.59l19.33-0.13
	c5.64,0,10.45,1.3,14.43,3.89c3.98,2.6,6.98,6,8.99,10.2c2.01,4.21,3.02,8.68,3.02,13.42c0,4.21-0.78,8.19-2.35,11.94
	c-1.57,3.76-3.89,6.89-6.98,9.39c-4.81,3.9-11.44,4.53-17.39,5.16c-2.57,0.27-3.23,0.29-6.88,0.65c-0.65,0.06-0.66,0.33,0,0.37
	c3.28,0.21,4.58,0.31,7.2,0.59c2.9,0.31,5.99,0.53,8.81,1.3c5.12,1.41,8.9,5.47,11.34,10.04c1.39,2.6,2.97,5.91,4.76,9.93
	c1.06,2.31,1.93,4.16,2.62,5.58c2.67,5.46,6.04,10.67,10.04,15.29c0.51-0.15,1.04-0.28,1.54-0.44c1.62-0.54,3.22-1.17,4.8-1.89
	c2.68-1.22,5.24-2.71,7.72-4.32c-2.39-1.94-4.69-3.99-6.78-6.25c-6.32-6.83-9.49-15.57-15.58-22.47c-3-3.4-7-5.9-12.01-7.51
	c6.98-1.88,12.35-5.32,16.1-10.34c3.76-5.01,5.64-10.6,5.64-16.78c0-5.28-1.39-10.27-4.16-14.97c-2.77-4.7-6.89-8.5-12.35-11.41
	c-5.46-2.91-11.99-4.36-19.6-4.36h-22.14h-13.96c0,0,0,0,0,0l-8.62,0c0,0-0.65,0.12,0.02,0.34c1.38,0.47,3.76,1.39,5.31,2.66
	c3.14,2.58,3.56,11.29,3.56,11.29l0.03-0.05c0.22,10.99,0.37,21.92,0.37,32.73c0,10.76-0.15,21.71-0.37,32.73l-0.03-0.05
	c0,0-0.42,8.71-3.56,11.29c-1.55,1.28-3.93,2.2-5.31,2.66c-0.67,0.23-0.02,0.34-0.02,0.34l8.62,0h13.81l8.62,0
	C473.47,276.24,474.11,276.12,473.44,275.89z M606.47,284.06c-2.6,0.93-4.68,1.54-6.51,2.1c-13.14,4.01-26.99,5.52-40.15,2.33
	c-3.7,3.9-8.04,7.51-13.19,10.35c16.78,4.38,36.4,0.59,51.25-7.34c3.59-1.92,6.71-3.8,9.91-6.4
	C608.77,284.28,607.78,283.59,606.47,284.06z"/>
<path class="st1" d="M564.1,1686.69c-0.18,0-0.33,0.15-0.33,0.33v105.83c0,0.18,0.15,0.33,0.33,0.33s0.33-0.15,0.33-0.33v-105.83
	C564.43,1686.84,564.28,1686.69,564.1,1686.69z M531.2,1698.84c0,0,0.38-7.91,3.24-10.26c1.41-1.16,3.57-2,4.83-2.42
	c0.61-0.21,0.02-0.31,0.02-0.31l-7.84,0c0,0,0,0,0,0h-12.69h-20.13c-6.91,0-12.85,1.32-17.81,3.96c-4.96,2.64-8.7,6.1-11.22,10.37
	c-2.52,4.27-3.78,8.81-3.78,13.6c0,5.61,1.71,10.69,5.12,15.25c3.41,4.56,8.3,7.69,14.64,9.39c-4.55,1.46-8.19,3.74-10.92,6.83
	c-5.54,6.26-8.42,14.21-14.16,20.42c-5.3,5.73-11.75,10.39-18.86,13.62c-1.58,0.72-3.17,1.34-4.78,1.88
	c-13.21,4.44-27.39,3.16-40.76-0.92c-1.67-0.51-3.56-1.07-5.92-1.91c-1.19-0.43-2.1,0.2-1.18,0.95c2.9,2.37,5.74,4.08,9,5.82
	c15.1,8.06,35.66,11.49,51.92,4.98c12.02-4.81,20.75-15.21,26.33-26.6c0.63-1.28,1.42-2.97,2.38-5.07c1.63-3.66,3.07-6.67,4.33-9.03
	c2.22-4.15,5.65-7.85,10.31-9.12c2.56-0.7,5.37-0.9,8.01-1.18c2.38-0.26,3.56-0.35,6.54-0.54c0.6-0.04,0.59-0.28,0-0.34
	c-3.32-0.33-3.92-0.35-6.25-0.59c-5.41-0.57-11.43-1.15-15.8-4.69c-2.81-2.28-4.92-5.12-6.34-8.54c-1.42-3.42-2.13-7.03-2.13-10.86
	c0-4.31,0.91-8.38,2.74-12.2c1.83-3.82,4.56-6.91,8.17-9.27c3.62-2.36,7.99-3.54,13.11-3.54l17.57,0.12
	c0.24,11.06,0.37,23.06,0.37,35.99v8.52v3.92v16.63c-0.07,1.69-0.12,3.55-0.17,5.36c-0.18,2.04-0.86,7.53-3.17,9.43
	c-1.41,1.16-3.57,2-4.83,2.42c-0.61,0.21-0.02,0.31-0.02,0.31l7.84,0h12.55l7.84,0c0,0,0.59-0.11-0.02-0.31
	c-1.26-0.42-3.42-1.26-4.83-2.42c-2.86-2.35-3.24-10.26-3.24-10.26l-0.02,0.05c-0.2-10.02-0.33-19.97-0.33-29.75
	c0-9.83,0.14-19.76,0.33-29.75L531.2,1698.84z M598.46,1755.78c-0.47-0.19-1.01-0.33-1.61-0.42c-0.57-0.08-1.05-0.18-1.43-0.31
	c-0.38-0.13-0.66-0.3-0.86-0.51c-0.2-0.21-0.29-0.47-0.29-0.79c0-0.28,0.07-0.53,0.2-0.75c0.13-0.23,0.35-0.41,0.67-0.55
	c0.31-0.14,0.73-0.21,1.26-0.21c0.45,0,0.84,0.07,1.16,0.2c0.32,0.13,0.56,0.32,0.73,0.55c0.16,0.24,0.24,0.51,0.24,0.81h1.21
	c0-0.52-0.13-0.98-0.38-1.37c-0.26-0.39-0.63-0.7-1.13-0.92c-0.5-0.22-1.1-0.33-1.81-0.33c-0.77,0-1.4,0.11-1.9,0.34
	c-0.5,0.23-0.86,0.53-1.1,0.92c-0.23,0.39-0.35,0.82-0.35,1.3c0,0.58,0.17,1.05,0.5,1.41c0.33,0.36,0.74,0.62,1.23,0.8
	c0.49,0.17,1.05,0.32,1.68,0.42c0.5,0.08,0.93,0.18,1.28,0.3c0.35,0.13,0.63,0.3,0.83,0.53c0.2,0.22,0.3,0.51,0.3,0.85
	c0,0.38-0.09,0.69-0.28,0.95c-0.19,0.26-0.46,0.45-0.83,0.58c-0.36,0.13-0.81,0.19-1.33,0.19c-0.44,0-0.83-0.07-1.18-0.21
	c-0.34-0.14-0.61-0.32-0.82-0.56c-0.21-0.24-0.34-0.5-0.39-0.79c0-0.05-0.01-0.1-0.02-0.15c-0.01-0.05-0.01-0.09-0.01-0.14h-1.2
	c0,0.49,0.13,0.96,0.4,1.39s0.67,0.79,1.21,1.06c0.55,0.27,1.22,0.41,2.01,0.41c0.75,0,1.4-0.11,1.95-0.32
	c0.55-0.22,0.97-0.53,1.26-0.94c0.29-0.41,0.44-0.9,0.44-1.48c0-0.59-0.15-1.07-0.46-1.44
	C599.32,1756.25,598.93,1755.97,598.46,1755.78z M586.14,1756.44h4.28v-1.03h-4.28v-2.92h4.93v-1.09h-6.13v9.22h6.19v-1.09h-4.99
	V1756.44z M595.98,1731.78h-3.31l-2.78,5.06l-2.82-5.06h-3.29l4.67,7.57v4.6h2.84l-0.01-4.62L595.98,1731.78z M511.01,1778.35
	c-2.36,0.84-4.25,1.4-5.92,1.91c-11.95,3.64-24.53,5.02-36.49,2.11c-3.37,3.54-7.31,6.82-11.99,9.41
	c15.25,3.98,33.08,0.53,46.58-6.67c3.26-1.74,6.1-3.45,9-5.82C513.1,1778.55,512.2,1777.92,511.01,1778.35z M613.9,1714.43h-2.84
	v12.17h2.84V1714.43z M690.91,1726.27c0.81,0.41,1.73,0.61,2.73,0.61c1.06,0,1.99-0.21,2.8-0.64c0.81-0.42,1.44-1.02,1.88-1.77
	c0.44-0.76,0.66-1.61,0.66-2.57v-7.47h-2.84v7.27c0,0.49-0.1,0.94-0.3,1.34c-0.2,0.4-0.49,0.71-0.86,0.93
	c-0.38,0.22-0.82,0.34-1.34,0.34c-0.54,0-0.99-0.11-1.37-0.34c-0.38-0.22-0.66-0.53-0.86-0.93c-0.2-0.39-0.29-0.84-0.29-1.34v-7.27
	h-2.83v7.47c0,1,0.23,1.87,0.7,2.63C689.45,1725.28,690.09,1725.86,690.91,1726.27z M599.77,1726.27c0.81,0.41,1.73,0.61,2.73,0.61
	c1.06,0,1.99-0.21,2.8-0.64c0.81-0.42,1.44-1.02,1.88-1.77c0.44-0.76,0.66-1.61,0.66-2.57v-7.47h-2.84v7.27
	c0,0.49-0.1,0.94-0.3,1.34c-0.2,0.4-0.49,0.71-0.86,0.93c-0.38,0.22-0.82,0.34-1.34,0.34c-0.54,0-0.99-0.11-1.37-0.34
	c-0.38-0.22-0.66-0.53-0.86-0.93c-0.2-0.39-0.29-0.84-0.29-1.34v-7.27h-2.83v7.47c0,1,0.23,1.87,0.7,2.63
	C598.32,1725.28,598.96,1725.86,599.77,1726.27z M587.77,1722.53h1.26c0.09,0,0.18,0,0.27,0s0.18,0,0.28,0l2.13,4.07h3.25l-2.6-4.52
	c0.47-0.2,0.88-0.47,1.23-0.82c0.35-0.35,0.61-0.76,0.8-1.22c0.19-0.47,0.28-0.97,0.28-1.51c0-0.81-0.19-1.52-0.56-2.14
	c-0.38-0.62-0.89-1.1-1.56-1.45c-0.66-0.34-1.42-0.51-2.27-0.51h-5.34v12.17h2.84V1722.53z M587.77,1716.95h2.39
	c0.3,0,0.58,0.07,0.84,0.21c0.26,0.14,0.46,0.34,0.61,0.58c0.15,0.24,0.22,0.5,0.22,0.78c0,0.32-0.07,0.6-0.22,0.84
	c-0.15,0.24-0.35,0.44-0.61,0.58c-0.26,0.14-0.54,0.21-0.85,0.21h-2.39V1716.95z M390.1,1770.93c-1.26-0.42-3.42-1.26-4.83-2.42
	c-2.31-1.9-3-7.39-3.17-9.43c-0.05-1.82-0.1-3.67-0.17-5.36v-16.63v-3.92v-8.52c0-12.93,0.12-24.92,0.37-35.99l17.57-0.12
	c5.12,0,9.5,1.18,13.11,3.54c3.62,2.36,6.34,5.45,8.17,9.27c1.83,3.82,2.74,7.89,2.74,12.2c0,3.82-0.71,7.44-2.13,10.86
	c-1.42,3.42-3.54,6.26-6.34,8.54c-4.37,3.54-10.4,4.12-15.8,4.69c-2.33,0.25-2.94,0.27-6.25,0.59c-0.59,0.06-0.6,0.3,0,0.34
	c2.98,0.19,4.16,0.28,6.54,0.54c2.64,0.28,5.44,0.48,8.01,1.18c4.66,1.28,8.09,4.97,10.31,9.12c1.26,2.36,2.7,5.37,4.33,9.03
	c0.96,2.1,1.75,3.78,2.38,5.07c2.43,4.96,5.49,9.69,9.13,13.9c0.46-0.14,0.94-0.25,1.4-0.4c1.47-0.49,2.93-1.07,4.37-1.72
	c2.43-1.11,4.76-2.46,7.02-3.92c-2.17-1.76-4.26-3.62-6.16-5.68c-5.74-6.21-8.62-14.16-14.16-20.42c-2.73-3.09-6.36-5.37-10.92-6.83
	c6.34-1.71,11.22-4.84,14.64-9.39c3.42-4.55,5.12-9.64,5.12-15.25c0-4.8-1.26-9.33-3.78-13.6c-2.52-4.27-6.26-7.72-11.22-10.37
	c-4.96-2.64-10.9-3.96-17.81-3.96h-20.13h-12.69c0,0,0,0,0,0l-7.84,0c0,0-0.59,0.11,0.02,0.31c1.26,0.42,3.42,1.26,4.83,2.42
	c2.86,2.35,3.24,10.26,3.24,10.26l0.02-0.05c0.2,9.99,0.33,19.92,0.33,29.75c0,9.78-0.14,19.73-0.33,29.75l-0.02-0.05
	c0,0-0.38,7.91-3.24,10.26c-1.41,1.16-3.57,2-4.83,2.42c-0.61,0.21-0.02,0.31-0.02,0.31l7.84,0h12.55l7.84,0
	C390.12,1771.24,390.71,1771.13,390.1,1770.93z M602.36,1743.95h3l0.79-1.98h5.08l0.79,1.98h3l-4.99-12.18h-2.66L602.36,1743.95z
	 M608.67,1735.44h0.03l0.08,0.38l1.51,3.8h-3.21l1.51-3.8L608.67,1735.44z M638,1726.41c0.72,0.31,1.49,0.47,2.34,0.47
	c0.58,0,1.17-0.1,1.77-0.3c0.6-0.2,1.18-0.47,1.73-0.83c0.06,0.07,0.13,0.14,0.2,0.21c0.06,0.07,0.13,0.14,0.2,0.21
	c0.12,0.13,0.25,0.28,0.39,0.43h3.31c-0.19-0.21-0.37-0.41-0.54-0.62c-0.18-0.2-0.35-0.41-0.53-0.61c-0.18-0.2-0.36-0.41-0.54-0.61
	c-0.18-0.21-0.36-0.41-0.54-0.61c0.48-0.56,0.85-1.16,1.13-1.8c0.28-0.65,0.43-1.32,0.46-2.01l-2.51-0.01
	c-0.02,0.34-0.1,0.68-0.22,1.01c-0.12,0.33-0.28,0.65-0.48,0.95l-1.91-2.16c0.43-0.25,0.8-0.52,1.12-0.82
	c0.32-0.29,0.57-0.62,0.76-0.98c0.19-0.36,0.29-0.75,0.29-1.15c0-0.65-0.16-1.2-0.47-1.66c-0.31-0.46-0.76-0.8-1.32-1.03
	c-0.57-0.23-1.24-0.35-2-0.36c-0.69,0-1.32,0.12-1.87,0.36c-0.55,0.24-0.99,0.58-1.31,1.03c-0.32,0.45-0.47,0.98-0.47,1.57
	c0,0.54,0.12,1.02,0.38,1.45c0.25,0.43,0.57,0.81,0.96,1.13c-0.53,0.31-0.97,0.6-1.34,0.89c-0.37,0.29-0.68,0.65-0.94,1.08
	c-0.26,0.43-0.39,0.94-0.39,1.51c0,0.73,0.21,1.38,0.64,1.94C636.72,1725.65,637.29,1726.09,638,1726.41z M639.86,1716.81
	c0.08-0.16,0.19-0.28,0.34-0.38c0.15-0.09,0.34-0.14,0.56-0.14c0.18,0,0.35,0.04,0.49,0.11c0.14,0.07,0.25,0.18,0.32,0.33
	c0.07,0.14,0.11,0.31,0.11,0.49c0,0.24-0.06,0.45-0.18,0.62c-0.12,0.17-0.26,0.31-0.42,0.42c-0.16,0.11-0.36,0.22-0.6,0.35
	l-0.04,0.03c-0.02-0.03-0.05-0.07-0.08-0.09c-0.03-0.03-0.06-0.06-0.09-0.09c-0.17-0.22-0.3-0.41-0.39-0.57
	c-0.09-0.16-0.13-0.34-0.13-0.55C639.75,1717.14,639.79,1716.97,639.86,1716.81z M638.62,1722.33c0.13-0.21,0.29-0.4,0.49-0.55
	c0.19-0.16,0.44-0.32,0.73-0.49c0.2,0.23,0.4,0.45,0.6,0.67c0.2,0.22,0.4,0.44,0.6,0.67c0.2,0.22,0.4,0.44,0.6,0.66
	s0.4,0.44,0.6,0.67c-0.3,0.2-0.62,0.35-0.96,0.45c-0.34,0.1-0.69,0.16-1.03,0.16c-0.31,0-0.6-0.06-0.88-0.18
	c-0.28-0.12-0.51-0.29-0.68-0.51c-0.18-0.23-0.26-0.5-0.26-0.81C638.42,1722.79,638.49,1722.54,638.62,1722.33z M601.43,1752.47
	h2.92v8.14h1.2v-8.14h2.92v-1.08h-7.04V1752.47z M685.06,1714.43h-2.84v12.17h2.84V1714.43z M449.61,1747.97
	c4.3,0,6.95-1.6,8.71-3.83c1.21,1.56,2.03,3.16,2.03,5.51c0,2.97-1.33,5.66-4.26,5.66c-1.25,0-1.68-0.47-1.68-1.09
	c0-0.27,0.04-0.51,0.16-0.78h1.29c0.16-0.55,0.23-1.02,0.23-1.41c0-1.6-0.98-2.38-2.54-2.38c-1.6,0-2.81,1.13-2.81,3.05
	c0,1.99,1.56,3.75,4.92,3.75c4.84,0,8.79-4.38,8.79-9.65c0-3.44-1.45-5.59-3.32-7.66c0.59-2.19,0.9-4.3,1.05-6.52h2.62v-1.05h-6.8
	v1.05h2.93c-0.08,1.84-0.35,3.63-0.86,5.55c-1.64-1.52-3.44-2.73-5.35-3.91c-1.48-0.94-2.81-1.8-4.1-2.69
	c4.02-1.64,6.29-3.87,6.29-6.8c0-2.97-2.15-4.96-6.68-4.96c-4.26,0-8.44,2.38-8.44,7.42c0,2.58,1.09,4.57,2.89,6.33
	c-3.67,1.45-5.43,3.59-5.43,6.95C439.26,1745.9,443.91,1747.97,449.61,1747.97z M450.12,1720.67c1.99,0,3.32,1.29,3.32,4.18
	c0,2.58-0.74,4.69-3.59,6.13c-2.62-1.95-3.71-3.63-3.71-6.05C446.14,1721.76,448.24,1720.67,450.12,1720.67z M445.51,1734.38
	c1.8,1.6,4.18,2.97,6.8,4.69c2.23,1.44,3.83,2.58,5.12,4.02c-1.41,1.87-3.52,3.24-6.76,3.24c-3.95,0-6.41-1.87-6.41-6.84
	C444.26,1736.8,444.65,1735.43,445.51,1734.38z M619.75,1726.27c0.81,0.41,1.73,0.61,2.73,0.61c1.06,0,1.99-0.21,2.8-0.64
	c0.81-0.42,1.44-1.02,1.88-1.77c0.44-0.76,0.66-1.61,0.66-2.57v-7.47h-2.84v7.27c0,0.49-0.1,0.94-0.3,1.34
	c-0.2,0.4-0.49,0.71-0.86,0.93c-0.38,0.22-0.82,0.34-1.34,0.34c-0.54,0-0.99-0.11-1.37-0.34c-0.38-0.22-0.66-0.53-0.86-0.93
	c-0.2-0.39-0.29-0.84-0.29-1.34v-7.27h-2.83v7.47c0,1,0.23,1.87,0.7,2.63C618.29,1725.28,618.93,1725.86,619.75,1726.27z
	 M678.75,1760.61h1.2v-9.22h-1.2V1760.61z M678.98,1750.71h0.87l1.2-1.61l-0.89-0.31L678.98,1750.71z M689.06,1751.97
	c-0.73-0.38-1.58-0.58-2.55-0.58h-3.37v9.22h3.39c0.96,0,1.8-0.19,2.54-0.58c0.73-0.38,1.3-0.93,1.7-1.62c0.4-0.7,0.6-1.5,0.6-2.42
	c0-0.91-0.2-1.71-0.61-2.41C690.37,1752.89,689.8,1752.35,689.06,1751.97z M689.72,1757.88c-0.3,0.53-0.72,0.93-1.27,1.22
	s-1.2,0.43-1.94,0.43h-2.18v-7.06h2.16c0.75,0,1.4,0.15,1.96,0.44c0.56,0.3,0.98,0.71,1.28,1.25c0.3,0.54,0.44,1.16,0.44,1.87
	C690.16,1756.73,690.02,1757.35,689.72,1757.88z M686.91,1743.19c0.98-0.51,1.74-1.22,2.28-2.14c0.54-0.92,0.81-1.99,0.81-3.19
	c0-1.2-0.27-2.26-0.81-3.18c-0.54-0.92-1.31-1.63-2.29-2.14c-0.98-0.51-2.12-0.76-3.42-0.76h-4.93v12.17h4.96
	C684.79,1743.95,685.92,1743.7,686.91,1743.19z M681.34,1741.44v-7.14h2.05c0.8,0,1.48,0.15,2.05,0.44c0.56,0.3,0.99,0.71,1.28,1.25
	c0.29,0.54,0.43,1.18,0.43,1.9c0,0.73-0.15,1.37-0.44,1.9c-0.29,0.53-0.72,0.94-1.28,1.22c-0.56,0.28-1.23,0.43-2.01,0.43H681.34z
	 M679.01,1714.43h-2.84v7.27c0,0.49-0.1,0.94-0.3,1.34c-0.2,0.4-0.49,0.71-0.86,0.93c-0.38,0.22-0.82,0.34-1.34,0.34
	c-0.54,0-0.99-0.11-1.37-0.34c-0.38-0.22-0.66-0.53-0.86-0.93c-0.2-0.39-0.29-0.84-0.29-1.34v-7.27h-2.83v7.47
	c0,1,0.23,1.87,0.7,2.63c0.46,0.75,1.11,1.33,1.92,1.74c0.81,0.41,1.73,0.61,2.73,0.61c1.06,0,1.99-0.21,2.8-0.64
	c0.81-0.42,1.44-1.02,1.88-1.77c0.44-0.76,0.66-1.61,0.66-2.57V1714.43z M693.88,1760.61h1.2v-9.22h-1.2V1760.61z M675.22,1756.43
	c0.3-0.25,0.54-0.56,0.71-0.93c0.17-0.37,0.25-0.77,0.25-1.22c0-0.57-0.13-1.07-0.39-1.51c-0.26-0.44-0.62-0.78-1.09-1.02
	s-0.99-0.36-1.58-0.36h-3.92v9.22h1.2v-3.46h2.25c0.05,0,0.1,0,0.15,0c0.05,0,0.1,0,0.15-0.01l2.05,3.47h1.38l-2.22-3.65
	C674.56,1756.86,674.91,1756.68,675.22,1756.43z M673.09,1756.12h-2.69v-3.65h2.67c0.36,0,0.68,0.08,0.97,0.24
	c0.29,0.16,0.52,0.38,0.68,0.65c0.16,0.28,0.25,0.59,0.25,0.93c0,0.36-0.08,0.67-0.24,0.95c-0.16,0.28-0.39,0.49-0.68,0.65
	S673.45,1756.12,673.09,1756.12z M712.14,1744.26c1.01,0,1.9-0.15,2.67-0.44c0.76-0.29,1.36-0.72,1.78-1.28
	c0.42-0.56,0.64-1.24,0.64-2.04c0-0.76-0.18-1.4-0.55-1.92c-0.37-0.52-0.87-0.94-1.51-1.25c-0.64-0.31-1.39-0.55-2.27-0.72
	c-0.66-0.12-1.18-0.25-1.57-0.38c-0.39-0.14-0.68-0.29-0.87-0.48c-0.19-0.19-0.28-0.41-0.28-0.66c0-0.22,0.05-0.4,0.15-0.57
	c0.1-0.16,0.29-0.3,0.55-0.41c0.27-0.11,0.64-0.16,1.12-0.16c0.47,0,0.85,0.06,1.15,0.19c0.29,0.13,0.5,0.29,0.63,0.5
	c0.13,0.21,0.19,0.43,0.19,0.68h2.84c0-0.79-0.18-1.47-0.53-2.04c-0.35-0.57-0.89-1.01-1.6-1.32c-0.71-0.31-1.59-0.47-2.64-0.47
	c-1.03,0-1.9,0.15-2.6,0.45c-0.7,0.3-1.23,0.72-1.58,1.25c-0.35,0.54-0.52,1.17-0.52,1.89c0,0.8,0.22,1.46,0.67,1.97
	c0.45,0.51,0.99,0.91,1.63,1.18c0.64,0.28,1.4,0.52,2.27,0.73c0.57,0.13,1.02,0.26,1.37,0.39c0.35,0.13,0.61,0.29,0.8,0.47
	c0.18,0.19,0.27,0.42,0.27,0.68c0,0.31-0.08,0.57-0.23,0.77c-0.15,0.21-0.39,0.36-0.72,0.46c-0.33,0.1-0.75,0.15-1.28,0.15
	c-0.43,0-0.8-0.06-1.12-0.18c-0.32-0.12-0.57-0.28-0.76-0.49c-0.19-0.21-0.31-0.46-0.36-0.74c-0.01-0.05-0.01-0.09-0.01-0.14
	s-0.01-0.09-0.01-0.14h-2.84c0,0.7,0.18,1.36,0.52,1.98c0.35,0.62,0.91,1.12,1.67,1.51
	C709.99,1744.06,710.96,1744.26,712.14,1744.26z M717.7,1753.57c-0.44-0.73-1.04-1.32-1.8-1.74c-0.75-0.43-1.58-0.64-2.47-0.64
	c-0.89,0-1.71,0.21-2.46,0.64c-0.75,0.43-1.35,1.01-1.79,1.74c-0.44,0.73-0.66,1.54-0.66,2.42c0,0.87,0.22,1.68,0.66,2.41
	c0.44,0.73,1.04,1.32,1.79,1.75c0.75,0.43,1.57,0.64,2.46,0.64c0.89,0,1.72-0.22,2.47-0.64c0.76-0.43,1.35-1.01,1.8-1.75
	c0.44-0.73,0.66-1.54,0.66-2.41C718.36,1755.11,718.14,1754.31,717.7,1753.57z M716.66,1757.87c-0.33,0.56-0.78,1.01-1.36,1.33
	c-0.57,0.32-1.2,0.49-1.88,0.49c-0.67,0-1.29-0.16-1.86-0.49c-0.57-0.32-1.02-0.77-1.36-1.33c-0.33-0.56-0.5-1.19-0.5-1.87
	s0.17-1.31,0.5-1.88c0.33-0.56,0.78-1.01,1.36-1.34c0.57-0.33,1.19-0.49,1.87-0.49c0.68,0,1.31,0.16,1.88,0.49
	c0.57,0.33,1.02,0.77,1.36,1.34c0.33,0.56,0.5,1.19,0.5,1.88S716.99,1757.31,716.66,1757.87z M701.78,1743.37
	c1.01-0.57,1.82-1.34,2.41-2.32c0.59-0.98,0.89-2.05,0.89-3.2c0-1.16-0.3-2.23-0.89-3.2c-0.59-0.97-1.4-1.74-2.41-2.31
	c-1.02-0.57-2.12-0.85-3.31-0.85c-1.21,0-2.31,0.28-3.32,0.85c-1.01,0.57-1.82,1.34-2.41,2.31c-0.59,0.97-0.89,2.04-0.89,3.2
	c0,1.16,0.3,2.23,0.89,3.2c0.59,0.98,1.4,1.75,2.41,2.32c1.01,0.57,2.12,0.85,3.32,0.85
	C699.66,1744.23,700.77,1743.94,701.78,1743.37z M695.19,1739.79c-0.34-0.58-0.51-1.22-0.51-1.94c0-0.72,0.17-1.37,0.5-1.95
	c0.33-0.58,0.79-1.03,1.37-1.35c0.58-0.33,1.22-0.49,1.92-0.49c0.69,0,1.33,0.16,1.91,0.49c0.58,0.32,1.04,0.78,1.38,1.35
	c0.34,0.58,0.51,1.23,0.51,1.95c0,0.72-0.17,1.36-0.51,1.94c-0.34,0.58-0.8,1.03-1.38,1.35c-0.58,0.32-1.21,0.48-1.91,0.48
	c-0.69,0-1.33-0.16-1.91-0.49C695.98,1740.82,695.53,1740.37,695.19,1739.79z M700.54,1752.77c0.55-0.32,1.15-0.48,1.81-0.48
	c0.51,0,0.97,0.08,1.39,0.25c0.42,0.17,0.78,0.42,1.08,0.75c0.3,0.33,0.52,0.74,0.65,1.23h1.22c-0.15-0.72-0.44-1.33-0.87-1.83
	c-0.43-0.5-0.94-0.88-1.54-1.13c-0.6-0.25-1.24-0.38-1.9-0.38c-0.89,0-1.7,0.21-2.43,0.64c-0.73,0.43-1.31,1.01-1.74,1.74
	c-0.43,0.73-0.64,1.54-0.64,2.42c0,0.88,0.21,1.68,0.64,2.41c0.42,0.73,1,1.31,1.74,1.74c0.73,0.43,1.54,0.64,2.43,0.64
	c0.67,0,1.31-0.13,1.91-0.38c0.6-0.25,1.12-0.63,1.54-1.13c0.43-0.5,0.72-1.11,0.86-1.83h-1.23c-0.14,0.48-0.35,0.89-0.65,1.22
	c-0.3,0.33-0.66,0.58-1.08,0.75c-0.42,0.17-0.89,0.25-1.39,0.25c-0.66,0-1.27-0.16-1.81-0.47c-0.55-0.31-0.97-0.75-1.29-1.31
	c-0.31-0.56-0.47-1.19-0.47-1.91c0-0.71,0.16-1.35,0.47-1.91C699.57,1753.53,699.99,1753.08,700.54,1752.77z M658.64,1743.95h2.84
	v-12.17h-2.84V1743.95z M673.34,1743.95h3l-4.99-12.18h-2.66l-5,12.18h3l0.79-1.98h5.08L673.34,1743.95z M668.41,1739.62l1.51-3.8
	l0.08-0.38h0.03l0.08,0.38l1.51,3.8H668.41z M631.97,1760.61h1.2v-9.22h-1.2V1760.61z M643.06,1751.83
	c-0.75-0.43-1.58-0.64-2.47-0.64c-0.89,0-1.71,0.21-2.46,0.64c-0.75,0.43-1.35,1.01-1.79,1.74c-0.44,0.73-0.66,1.54-0.66,2.42
	c0,0.87,0.22,1.68,0.66,2.41c0.44,0.73,1.04,1.32,1.79,1.75c0.75,0.43,1.57,0.64,2.46,0.64c0.89,0,1.72-0.22,2.47-0.64
	c0.76-0.43,1.35-1.01,1.8-1.75c0.44-0.73,0.66-1.54,0.66-2.41c0-0.88-0.22-1.69-0.66-2.42
	C644.42,1752.84,643.82,1752.26,643.06,1751.83z M643.82,1757.87c-0.33,0.56-0.78,1.01-1.36,1.33c-0.57,0.32-1.2,0.49-1.88,0.49
	c-0.67,0-1.29-0.16-1.86-0.49c-0.57-0.32-1.02-0.77-1.36-1.33c-0.33-0.56-0.5-1.19-0.5-1.87s0.17-1.31,0.5-1.88
	c0.33-0.56,0.78-1.01,1.36-1.34c0.57-0.33,1.19-0.49,1.87-0.49c0.68,0,1.31,0.16,1.88,0.49c0.57,0.33,1.02,0.77,1.36,1.34
	c0.33,0.56,0.5,1.19,0.5,1.88S644.16,1757.31,643.82,1757.87z M627.15,1751.97c-0.73-0.38-1.58-0.58-2.55-0.58h-3.37v9.22h3.39
	c0.96,0,1.8-0.19,2.54-0.58c0.73-0.38,1.3-0.93,1.7-1.62c0.4-0.7,0.6-1.5,0.6-2.42c0-0.91-0.2-1.71-0.61-2.41
	C628.45,1752.89,627.88,1752.35,627.15,1751.97z M627.81,1757.88c-0.3,0.53-0.72,0.93-1.27,1.22c-0.55,0.29-1.2,0.43-1.94,0.43
	h-2.18v-7.06h2.16c0.75,0,1.4,0.15,1.96,0.44c0.56,0.3,0.98,0.71,1.28,1.25c0.3,0.54,0.44,1.16,0.44,1.87
	C628.25,1756.73,628.1,1757.35,627.81,1757.88z M624.08,1743.82c0.76-0.29,1.36-0.72,1.78-1.28c0.42-0.56,0.64-1.24,0.64-2.04
	c0-0.76-0.18-1.4-0.55-1.92c-0.37-0.52-0.87-0.94-1.51-1.25c-0.64-0.31-1.39-0.55-2.27-0.72c-0.66-0.12-1.18-0.25-1.57-0.38
	c-0.39-0.14-0.68-0.29-0.87-0.48c-0.19-0.19-0.28-0.41-0.28-0.66c0-0.22,0.05-0.4,0.15-0.57c0.1-0.16,0.29-0.3,0.55-0.41
	c0.27-0.11,0.64-0.16,1.12-0.16c0.47,0,0.85,0.06,1.15,0.19c0.29,0.13,0.5,0.29,0.63,0.5c0.13,0.21,0.19,0.43,0.19,0.68h2.84
	c0-0.79-0.18-1.47-0.53-2.04c-0.35-0.57-0.89-1.01-1.6-1.32c-0.71-0.31-1.59-0.47-2.64-0.47c-1.03,0-1.9,0.15-2.6,0.45
	c-0.7,0.3-1.23,0.72-1.58,1.25c-0.35,0.54-0.52,1.17-0.52,1.89c0,0.8,0.22,1.46,0.67,1.97c0.45,0.51,0.99,0.91,1.63,1.18
	c0.64,0.28,1.4,0.52,2.27,0.73c0.57,0.13,1.02,0.26,1.37,0.39c0.35,0.13,0.61,0.29,0.8,0.47c0.18,0.19,0.27,0.42,0.27,0.68
	c0,0.31-0.08,0.57-0.23,0.77c-0.15,0.21-0.39,0.36-0.72,0.46c-0.33,0.1-0.75,0.15-1.28,0.15c-0.43,0-0.8-0.06-1.12-0.18
	c-0.32-0.12-0.57-0.28-0.76-0.49c-0.19-0.21-0.31-0.46-0.36-0.74c-0.01-0.05-0.01-0.09-0.01-0.14c0-0.05-0.01-0.09-0.01-0.14h-2.84
	c0,0.7,0.18,1.36,0.52,1.98c0.35,0.62,0.91,1.12,1.67,1.51c0.77,0.39,1.74,0.58,2.91,0.58
	C622.42,1744.26,623.31,1744.11,624.08,1743.82z M640.72,1741.05c0.59-0.98,0.89-2.05,0.89-3.2c0-1.16-0.3-2.23-0.89-3.2
	c-0.59-0.97-1.4-1.74-2.41-2.31c-1.02-0.57-2.12-0.85-3.31-0.85c-1.21,0-2.31,0.28-3.32,0.85c-1.01,0.57-1.82,1.34-2.41,2.31
	c-0.59,0.97-0.89,2.04-0.89,3.2c0,1.16,0.3,2.23,0.89,3.2c0.59,0.98,1.4,1.75,2.41,2.32c1.01,0.57,2.12,0.85,3.32,0.85
	c1.19,0,2.3-0.28,3.31-0.85C639.33,1742.8,640.13,1742.03,640.72,1741.05z M636.91,1741.15c-0.58,0.32-1.21,0.48-1.91,0.48
	c-0.69,0-1.33-0.16-1.91-0.49c-0.58-0.33-1.04-0.78-1.37-1.35c-0.34-0.58-0.51-1.22-0.51-1.94c0-0.72,0.17-1.37,0.5-1.95
	c0.33-0.58,0.79-1.03,1.37-1.35c0.58-0.33,1.22-0.49,1.92-0.49c0.69,0,1.33,0.16,1.91,0.49c0.58,0.32,1.04,0.78,1.38,1.35
	c0.34,0.58,0.51,1.23,0.51,1.95c0,0.72-0.17,1.36-0.51,1.94C637.94,1740.38,637.49,1740.83,636.91,1741.15z M617.01,1756.97
	c0,0.51-0.11,0.97-0.31,1.38c-0.21,0.41-0.51,0.74-0.91,0.98c-0.4,0.24-0.86,0.36-1.39,0.36c-0.54,0-1.01-0.12-1.41-0.37
	c-0.4-0.24-0.7-0.57-0.91-0.99s-0.31-0.88-0.31-1.38v-5.57h-1.19v5.65c0,0.75,0.17,1.4,0.5,1.97c0.34,0.57,0.79,1.01,1.37,1.32
	c0.58,0.31,1.23,0.47,1.94,0.47c0.74,0,1.39-0.16,1.97-0.48c0.58-0.32,1.03-0.76,1.36-1.34c0.33-0.57,0.49-1.22,0.49-1.95v-5.65
	h-1.2V1756.97z M654.5,1757.39c0,0.42-0.09,0.8-0.26,1.13c-0.17,0.32-0.41,0.58-0.72,0.75c-0.31,0.18-0.67,0.26-1.07,0.26h-1.31
	v1.09h1.3c0.64,0,1.2-0.13,1.69-0.38c0.49-0.25,0.87-0.62,1.15-1.09c0.27-0.48,0.41-1.04,0.41-1.68v-6.06h-1.19V1757.39z
	 M664.97,1756.97c0,0.51-0.11,0.97-0.31,1.38c-0.21,0.41-0.51,0.74-0.91,0.98c-0.4,0.24-0.86,0.36-1.39,0.36
	c-0.54,0-1.01-0.12-1.41-0.37c-0.4-0.24-0.7-0.57-0.91-0.99s-0.31-0.88-0.31-1.38v-5.57h-1.19v5.65c0,0.75,0.17,1.4,0.5,1.97
	c0.34,0.57,0.79,1.01,1.37,1.32c0.58,0.31,1.23,0.47,1.94,0.47c0.74,0,1.39-0.16,1.97-0.48c0.58-0.32,1.03-0.76,1.36-1.34
	c0.33-0.57,0.49-1.22,0.49-1.95v-5.65h-1.2V1756.97z M658.93,1722.53h1.26c0.09,0,0.18,0,0.27,0s0.18,0,0.28,0l2.13,4.07h3.25
	l-2.6-4.52c0.47-0.2,0.88-0.47,1.23-0.82c0.35-0.35,0.61-0.76,0.8-1.22c0.19-0.47,0.28-0.97,0.28-1.51c0-0.81-0.19-1.52-0.56-2.14
	c-0.38-0.62-0.89-1.1-1.56-1.45s-1.42-0.51-2.27-0.51h-5.34v12.17h2.84V1722.53z M658.93,1716.95h2.39c0.3,0,0.58,0.07,0.84,0.21
	c0.26,0.14,0.46,0.34,0.61,0.58c0.15,0.24,0.22,0.5,0.22,0.78c0,0.32-0.07,0.6-0.22,0.84c-0.15,0.24-0.35,0.44-0.61,0.58
	c-0.26,0.14-0.54,0.21-0.85,0.21h-2.39V1716.95z M648.09,1734.53c0.55-0.31,1.15-0.46,1.81-0.46c0.52,0,1,0.08,1.44,0.25
	c0.43,0.17,0.8,0.44,1.11,0.81c0.31,0.37,0.53,0.84,0.67,1.42H656c-0.17-1.12-0.56-2.07-1.18-2.83c-0.62-0.77-1.35-1.33-2.21-1.7
	c-0.86-0.37-1.74-0.55-2.64-0.55c-1.18,0-2.27,0.28-3.27,0.85c-1,0.57-1.79,1.34-2.37,2.31c-0.58,0.97-0.87,2.04-0.87,3.2
	c0,1.16,0.29,2.23,0.87,3.2c0.58,0.98,1.37,1.75,2.37,2.32c1,0.57,2.09,0.85,3.27,0.85c0.91,0,1.79-0.18,2.65-0.55
	c0.86-0.37,1.59-0.93,2.21-1.7c0.61-0.76,1-1.71,1.17-2.83h-2.9c-0.14,0.57-0.36,1.04-0.67,1.41c-0.31,0.37-0.68,0.64-1.11,0.81
	c-0.43,0.17-0.91,0.25-1.43,0.25c-0.67,0-1.28-0.15-1.82-0.45c-0.55-0.3-0.98-0.73-1.29-1.3c-0.32-0.57-0.47-1.25-0.47-2.03
	c0-0.76,0.16-1.43,0.48-2C647.11,1735.28,647.54,1734.84,648.09,1734.53z"/>
<path class="st1" d="M546.98,780.01c-2.32,0.83-4.18,1.38-5.82,1.88c-11.74,3.58-24.11,4.94-35.87,2.08
	c-3.31,3.48-7.19,6.71-11.78,9.25c14.99,3.91,32.52,0.53,45.78-6.56c3.21-1.71,6-3.39,8.85-5.72
	C549.04,780.2,548.15,779.59,546.98,780.01z M595.53,741.49c0,0.56-0.11,1.06-0.34,1.49c-0.23,0.43-0.54,0.76-0.95,0.99
	c-0.41,0.23-0.88,0.34-1.42,0.34h-1.73v1.43h1.72c0.84,0,1.59-0.17,2.23-0.5c0.65-0.33,1.15-0.82,1.51-1.45
	c0.36-0.63,0.54-1.37,0.54-2.22v-8h-1.57V741.49z M609.35,740.93c0,0.67-0.14,1.27-0.42,1.82c-0.28,0.55-0.68,0.98-1.2,1.3
	c-0.52,0.32-1.13,0.48-1.84,0.48c-0.72,0-1.33-0.16-1.86-0.48c-0.52-0.32-0.92-0.76-1.19-1.31c-0.27-0.55-0.41-1.16-0.41-1.83v-7.35
	h-1.58v7.47c0,0.98,0.22,1.85,0.66,2.6c0.44,0.75,1.05,1.33,1.81,1.75c0.77,0.41,1.62,0.62,2.56,0.62c0.97,0,1.84-0.21,2.6-0.63
	c0.76-0.42,1.36-1.01,1.79-1.76c0.43-0.75,0.64-1.61,0.64-2.57v-7.47h-1.58V740.93z M594,720.71h5.66v-1.36H594v-3.86h6.51v-1.44
	h-8.09v12.17h8.17v-1.43H594V720.71z M566.83,701.85c0,0,0.37-7.78,3.18-10.08c1.39-1.14,3.51-1.96,4.74-2.38
	c0.6-0.2,0.02-0.31,0.02-0.31l-7.7,0c0,0,0,0,0,0h-12.47h-19.78c-6.79,0-12.63,1.3-17.51,3.9c-4.87,2.6-8.55,6-11.03,10.19
	c-2.48,4.2-3.72,8.66-3.72,13.37c0,5.51,1.68,10.51,5.04,14.99c3.36,4.48,8.15,7.55,14.39,9.23c-4.48,1.44-8.05,3.68-10.73,6.71
	c-5.44,6.16-8.28,13.97-13.92,20.07c-5.21,5.63-11.55,10.21-18.54,13.39c-1.55,0.7-3.12,1.32-4.7,1.85
	c-12.98,4.37-26.92,3.11-40.07-0.9c-1.64-0.5-3.5-1.05-5.82-1.88c-1.17-0.42-2.06,0.19-1.16,0.93c2.85,2.33,5.64,4.01,8.85,5.72
	c14.84,7.92,35.05,11.29,51.03,4.9c11.82-4.73,20.39-14.95,25.88-26.15c0.62-1.26,1.4-2.92,2.34-4.98c1.6-3.6,3.02-6.55,4.26-8.87
	c2.18-4.08,5.55-7.71,10.13-8.97c2.52-0.69,5.28-0.89,7.87-1.16c2.34-0.25,3.5-0.34,6.43-0.53c0.59-0.04,0.58-0.27,0-0.33
	c-3.26-0.32-3.85-0.34-6.14-0.58c-5.31-0.56-11.24-1.13-15.53-4.61c-2.76-2.24-4.84-5.04-6.24-8.39c-1.4-3.36-2.1-6.91-2.1-10.67
	c0-4.24,0.9-8.23,2.7-11.99c1.8-3.76,4.48-6.79,8.04-9.11c3.56-2.32,7.85-3.48,12.89-3.48l17.27,0.12
	c0.24,10.87,0.36,22.66,0.36,35.37v8.37v3.86v16.35c-0.07,1.66-0.11,3.49-0.17,5.27c-0.18,2.01-0.85,7.4-3.12,9.27
	c-1.39,1.14-3.51,1.96-4.74,2.38c-0.6,0.2-0.02,0.31-0.02,0.31l7.7,0h12.34l7.7,0c0,0,0.58-0.11-0.02-0.31
	c-1.24-0.42-3.36-1.24-4.74-2.38c-2.81-2.31-3.18-10.08-3.18-10.08l-0.02,0.05c-0.2-9.85-0.33-19.63-0.33-29.25
	c0-9.66,0.13-19.43,0.33-29.24L566.83,701.85z M656.09,714.05h-1.58v12.17h1.58V714.05z M428.13,772.71
	c-1.24-0.42-3.36-1.24-4.74-2.38c-2.27-1.87-2.94-7.26-3.12-9.27c-0.05-1.79-0.1-3.61-0.17-5.27v-16.35v-3.86v-8.37
	c0-12.71,0.12-24.5,0.36-35.37l17.27-0.12c5.04,0,9.33,1.16,12.89,3.48c3.56,2.32,6.23,5.36,8.04,9.11c1.8,3.76,2.7,7.76,2.7,11.99
	c0,3.76-0.7,7.31-2.1,10.67c-1.4,3.36-3.48,6.16-6.24,8.39c-4.29,3.48-10.22,4.05-15.53,4.61c-2.29,0.24-2.89,0.26-6.14,0.58
	c-0.58,0.06-0.59,0.29,0,0.33c2.93,0.19,4.09,0.28,6.43,0.53c2.59,0.28,5.35,0.47,7.87,1.16c4.58,1.26,7.95,4.89,10.13,8.97
	c1.24,2.32,2.66,5.28,4.26,8.87c0.94,2.06,1.72,3.72,2.34,4.98c2.39,4.87,5.4,9.53,8.97,13.66c0.46-0.14,0.92-0.25,1.37-0.4
	c1.45-0.48,2.88-1.05,4.29-1.69c2.39-1.09,4.68-2.42,6.9-3.86c-2.14-1.73-4.19-3.56-6.06-5.58c-5.64-6.1-8.48-13.92-13.92-20.07
	c-2.68-3.04-6.26-5.27-10.73-6.71c6.23-1.68,11.03-4.76,14.39-9.23c3.36-4.48,5.04-9.47,5.04-14.99c0-4.72-1.24-9.17-3.72-13.37
	c-2.48-4.2-6.16-7.59-11.03-10.19c-4.88-2.6-10.71-3.9-17.51-3.9h-19.78h-12.47c0,0,0,0,0,0l-7.7,0c0,0-0.58,0.11,0.02,0.31
	c1.24,0.42,3.36,1.24,4.74,2.38c2.81,2.31,3.18,10.08,3.18,10.08l0.02-0.05c0.19,9.82,0.33,19.58,0.33,29.24
	c0,9.62-0.13,19.4-0.33,29.25l-0.02-0.05c0,0-0.37,7.78-3.18,10.08c-1.39,1.14-3.51,1.96-4.74,2.38c-0.6,0.2-0.02,0.31-0.02,0.31
	l7.7,0h12.34l7.7,0C428.15,773.02,428.73,772.91,428.13,772.71z M648.14,714.81c-0.97-0.51-2.09-0.76-3.36-0.76h-4.45v12.17h4.48
	c1.26,0,2.38-0.25,3.35-0.76c0.97-0.51,1.72-1.22,2.25-2.14c0.53-0.92,0.8-1.99,0.8-3.19c0-1.2-0.27-2.26-0.8-3.18
	C649.86,716.03,649.11,715.32,648.14,714.81z M649.01,722.61c-0.39,0.69-0.95,1.23-1.67,1.61c-0.72,0.38-1.58,0.57-2.56,0.57h-2.88
	v-9.33h2.85c0.99,0,1.85,0.19,2.59,0.59c0.73,0.39,1.3,0.94,1.69,1.65c0.39,0.71,0.59,1.53,0.59,2.47
	C649.59,721.1,649.4,721.92,649.01,722.61z M486.63,750.15c4.22,0,6.84-1.58,8.56-3.76c1.19,1.54,2,3.11,2,5.41
	c0,2.92-1.31,5.57-4.19,5.57c-1.23,0-1.65-0.46-1.65-1.08c0-0.27,0.04-0.5,0.15-0.77h1.27c0.15-0.54,0.23-1,0.23-1.38
	c0-1.58-0.96-2.34-2.5-2.34c-1.57,0-2.77,1.11-2.77,2.99c0,1.96,1.54,3.69,4.84,3.69c4.76,0,8.64-4.3,8.64-9.48
	c0-3.38-1.42-5.49-3.26-7.53c0.58-2.15,0.88-4.22,1.04-6.41h2.57v-1.04h-6.68v1.04h2.88c-0.08,1.8-0.35,3.57-0.84,5.45
	c-1.61-1.5-3.38-2.69-5.26-3.84c-1.46-0.92-2.76-1.77-4.03-2.65c3.96-1.61,6.18-3.8,6.18-6.68c0-2.92-2.11-4.88-6.57-4.88
	c-4.19,0-8.29,2.34-8.29,7.3c0,2.53,1.07,4.49,2.84,6.22c-3.61,1.42-5.34,3.53-5.34,6.83C476.45,748.11,481.02,750.15,486.63,750.15
	z M487.13,723.3c1.96,0,3.26,1.27,3.26,4.11c0,2.53-0.73,4.61-3.53,6.03c-2.57-1.92-3.65-3.57-3.65-5.95
	C483.21,724.38,485.29,723.3,487.13,723.3z M482.6,736.78c1.77,1.57,4.11,2.92,6.68,4.61c2.19,1.42,3.76,2.53,5.03,3.96
	c-1.38,1.84-3.46,3.19-6.64,3.19c-3.88,0-6.3-1.84-6.3-6.72C481.37,739.16,481.75,737.82,482.6,736.78z M678.96,736.45
	c-0.58-0.97-1.38-1.74-2.37-2.3c-1-0.56-2.09-0.85-3.27-0.85c-1.18,0-2.26,0.28-3.25,0.85c-0.99,0.56-1.78,1.33-2.37,2.3
	c-0.59,0.97-0.88,2.04-0.88,3.2c0,1.15,0.29,2.21,0.88,3.18c0.58,0.97,1.37,1.74,2.37,2.3c0.99,0.57,2.08,0.85,3.25,0.85
	c1.18,0,2.27-0.28,3.27-0.85c1-0.57,1.79-1.34,2.37-2.3c0.59-0.97,0.88-2.03,0.88-3.18C679.84,738.49,679.55,737.42,678.96,736.45z
	 M677.6,742.12c-0.44,0.74-1.03,1.33-1.79,1.75c-0.75,0.43-1.58,0.64-2.48,0.64c-0.89,0-1.71-0.21-2.46-0.64
	c-0.75-0.43-1.35-1.01-1.79-1.75c-0.44-0.74-0.66-1.57-0.66-2.47c0-0.91,0.22-1.73,0.66-2.48c0.44-0.75,1.03-1.33,1.79-1.76
	c0.75-0.43,1.58-0.64,2.47-0.64c0.9,0,1.73,0.21,2.48,0.64c0.76,0.43,1.35,1.02,1.79,1.76c0.44,0.75,0.66,1.57,0.66,2.48
	C678.26,740.56,678.04,741.38,677.6,742.12z M671.52,723.31c0.59-0.97,0.88-2.03,0.88-3.18c0-1.16-0.29-2.23-0.88-3.2
	c-0.58-0.97-1.38-1.74-2.37-2.3c-1-0.56-2.09-0.85-3.27-0.85c-1.18,0-2.26,0.28-3.25,0.85c-0.99,0.56-1.78,1.33-2.37,2.3
	c-0.59,0.97-0.88,2.04-0.88,3.2c0,1.15,0.29,2.21,0.88,3.18c0.58,0.97,1.37,1.74,2.37,2.31c0.99,0.57,2.08,0.85,3.25,0.85
	c1.18,0,2.27-0.28,3.27-0.85C670.15,725.05,670.94,724.28,671.52,723.31z M665.88,725c-0.89,0-1.71-0.21-2.46-0.64
	c-0.75-0.43-1.35-1.01-1.79-1.75c-0.44-0.74-0.66-1.57-0.66-2.48c0-0.91,0.22-1.73,0.66-2.48c0.44-0.75,1.03-1.33,1.79-1.76
	c0.75-0.43,1.58-0.64,2.47-0.64c0.9,0,1.73,0.21,2.48,0.64c0.76,0.43,1.35,1.02,1.79,1.76c0.44,0.75,0.66,1.57,0.66,2.48
	c0,0.91-0.22,1.73-0.66,2.48s-1.03,1.33-1.79,1.75C667.61,724.78,666.78,725,665.88,725z M641.16,734.33
	c-0.97-0.51-2.09-0.76-3.36-0.76h-4.45v12.17h4.48c1.26,0,2.38-0.25,3.35-0.76c0.97-0.51,1.72-1.22,2.25-2.14
	c0.53-0.92,0.8-1.99,0.8-3.19c0-1.2-0.27-2.26-0.8-3.18C642.88,735.55,642.13,734.84,641.16,734.33z M642.03,742.13
	c-0.39,0.69-0.95,1.23-1.67,1.61c-0.72,0.38-1.58,0.57-2.56,0.57h-2.88v-9.33h2.85c0.99,0,1.85,0.19,2.59,0.59
	c0.73,0.39,1.3,0.94,1.69,1.65c0.39,0.71,0.59,1.53,0.59,2.47C642.61,740.62,642.42,741.44,642.03,742.13z M635.69,724.08
	c0.43-0.75,0.64-1.61,0.64-2.57v-7.46h-1.58v7.37c0,0.67-0.14,1.28-0.42,1.82c-0.28,0.55-0.68,0.98-1.2,1.3
	c-0.52,0.32-1.13,0.48-1.84,0.48c-0.72,0-1.33-0.16-1.86-0.48c-0.52-0.32-0.92-0.76-1.19-1.31c-0.27-0.55-0.41-1.16-0.41-1.83v-7.35
	h-1.58v7.46c0,0.98,0.22,1.85,0.66,2.6c0.44,0.75,1.05,1.33,1.81,1.75c0.77,0.41,1.62,0.62,2.56,0.62c0.97,0,1.84-0.21,2.6-0.63
	C634.66,725.42,635.26,724.83,635.69,724.08z M656.31,735.39c0.72-0.42,1.52-0.63,2.39-0.63c0.67,0,1.28,0.11,1.84,0.33
	c0.56,0.22,1.03,0.55,1.43,0.99c0.4,0.44,0.69,0.98,0.86,1.62h1.61c-0.2-0.95-0.59-1.75-1.15-2.42c-0.56-0.66-1.24-1.16-2.04-1.49
	c-0.79-0.33-1.63-0.5-2.52-0.5c-1.17,0-2.24,0.28-3.21,0.85c-0.97,0.56-1.73,1.33-2.3,2.3c-0.56,0.97-0.84,2.04-0.84,3.2
	c0,1.16,0.28,2.22,0.84,3.19c0.56,0.97,1.33,1.73,2.3,2.3c0.97,0.57,2.04,0.85,3.21,0.85c0.89,0,1.73-0.16,2.52-0.5
	c0.79-0.33,1.47-0.83,2.04-1.49c0.56-0.66,0.95-1.47,1.14-2.42h-1.62c-0.18,0.64-0.47,1.18-0.86,1.62c-0.4,0.44-0.87,0.77-1.43,0.99
	c-0.56,0.22-1.17,0.33-1.83,0.33c-0.88,0-1.68-0.21-2.39-0.62c-0.72-0.41-1.29-0.99-1.7-1.73c-0.41-0.74-0.62-1.58-0.62-2.52
	c0-0.94,0.21-1.78,0.62-2.52C655.02,736.39,655.59,735.81,656.31,735.39z M647.52,745.74h1.58v-12.17h-1.58V745.74z M610.25,719.84
	c-0.62-0.25-1.33-0.43-2.13-0.55c-0.76-0.1-1.39-0.24-1.88-0.41c-0.5-0.17-0.88-0.39-1.14-0.68c-0.26-0.28-0.39-0.63-0.39-1.04
	c0-0.36,0.09-0.69,0.26-0.99c0.17-0.3,0.47-0.54,0.88-0.72c0.41-0.18,0.97-0.28,1.67-0.28c0.6,0,1.11,0.09,1.53,0.26
	c0.42,0.18,0.74,0.42,0.96,0.73c0.21,0.31,0.32,0.67,0.32,1.08h1.59c0-0.69-0.17-1.29-0.51-1.81c-0.34-0.52-0.84-0.93-1.5-1.22
	c-0.66-0.29-1.45-0.43-2.39-0.43c-1.01,0-1.85,0.15-2.51,0.45s-1.14,0.71-1.45,1.22c-0.31,0.51-0.46,1.08-0.46,1.71
	c0,0.77,0.22,1.39,0.66,1.86s0.98,0.82,1.62,1.05c0.64,0.23,1.38,0.42,2.22,0.56c0.66,0.1,1.23,0.24,1.69,0.4
	c0.46,0.17,0.83,0.4,1.09,0.69c0.26,0.3,0.4,0.67,0.4,1.12c0,0.5-0.12,0.91-0.37,1.25c-0.25,0.34-0.61,0.59-1.09,0.76
	c-0.48,0.17-1.07,0.25-1.76,0.25c-0.58,0-1.1-0.09-1.55-0.27c-0.45-0.18-0.81-0.43-1.08-0.74c-0.27-0.31-0.44-0.66-0.51-1.04
	c-0.01-0.07-0.01-0.13-0.02-0.19c-0.01-0.06-0.01-0.12-0.01-0.18h-1.58c0,0.65,0.17,1.27,0.52,1.84s0.88,1.04,1.6,1.4
	s1.6,0.54,2.65,0.54c0.99,0,1.85-0.14,2.57-0.43c0.72-0.29,1.28-0.7,1.66-1.24c0.38-0.54,0.58-1.19,0.58-1.95
	c0-0.78-0.2-1.42-0.61-1.91C611.39,720.46,610.87,720.09,610.25,719.84z M618.03,726.22h1.58v-10.75h3.86v-1.42h-9.29v1.42h3.85
	V726.22z M627.84,732.67h1.15l1.58-2.13l-1.17-0.4L627.84,732.67z M622.88,740.22c0.4-0.33,0.71-0.73,0.93-1.22
	c0.22-0.49,0.33-1.02,0.33-1.61c0-0.75-0.17-1.42-0.51-2c-0.34-0.58-0.82-1.03-1.43-1.35c-0.61-0.32-1.31-0.48-2.09-0.48h-5.17
	v12.17h1.58v-4.57h2.97c0.06,0,0.13,0,0.2,0c0.07,0,0.13,0,0.2-0.01l2.7,4.58h1.83l-2.94-4.81
	C622.01,740.79,622.48,740.55,622.88,740.22z M620.07,739.82h-3.55V735h3.53c0.47,0,0.9,0.1,1.28,0.31c0.39,0.21,0.69,0.5,0.9,0.86
	c0.22,0.36,0.33,0.77,0.33,1.23c0,0.47-0.11,0.89-0.32,1.25c-0.22,0.36-0.51,0.65-0.89,0.85
	C620.96,739.72,620.54,739.82,620.07,739.82z M627.53,745.74h1.58v-12.17h-1.58V745.74z"/>
<path class="st1" d="M448.01,1252.19l-13-1.6l-0.21,1.69l13,1.6L448.01,1252.19z M515.15,1167.27c0.56,0.4,1.21,0.65,1.94,0.75
	c0.73,0.1,1.55,0.14,2.47,0.1c0.72-0.04,1.34-0.02,1.86,0.06c0.52,0.08,0.96,0.24,1.3,0.49c0.34,0.25,0.57,0.62,0.66,1.1
	c0.11,0.52,0.07,0.99-0.12,1.4c-0.19,0.41-0.52,0.76-0.98,1.04c-0.47,0.28-1.07,0.5-1.8,0.65c-0.62,0.13-1.18,0.15-1.69,0.05
	c-0.52-0.09-0.95-0.27-1.3-0.54c-0.35-0.27-0.61-0.59-0.77-0.98c-0.02-0.07-0.04-0.13-0.06-0.2c-0.02-0.06-0.04-0.13-0.05-0.19
	l-1.67,0.35c0.14,0.68,0.46,1.29,0.95,1.82c0.49,0.53,1.16,0.91,2,1.13c0.84,0.22,1.81,0.22,2.91-0.01
	c1.04-0.22,1.92-0.55,2.62-1.01c0.7-0.46,1.19-1.02,1.48-1.68c0.29-0.66,0.35-1.38,0.18-2.18c-0.17-0.82-0.53-1.45-1.06-1.87
	c-0.54-0.43-1.16-0.7-1.87-0.83c-0.71-0.12-1.5-0.16-2.36-0.11c-0.82,0.06-1.51,0.05-2.07-0.02c-0.56-0.07-1.01-0.22-1.35-0.46
	c-0.33-0.24-0.55-0.58-0.64-1.01c-0.08-0.38-0.06-0.75,0.06-1.1c0.12-0.35,0.37-0.67,0.77-0.96c0.4-0.29,0.96-0.5,1.7-0.66
	c0.63-0.13,1.18-0.15,1.67-0.06c0.48,0.09,0.87,0.28,1.17,0.56c0.29,0.28,0.49,0.63,0.58,1.06l1.68-0.35
	c-0.15-0.72-0.46-1.32-0.93-1.8c-0.47-0.48-1.08-0.79-1.84-0.96c-0.76-0.16-1.63-0.14-2.61,0.06c-1.07,0.22-1.92,0.56-2.55,1.02
	c-0.63,0.46-1.05,0.99-1.26,1.6c-0.21,0.61-0.24,1.24-0.11,1.91C514.21,1166.26,514.58,1166.87,515.15,1167.27z M439.61,1241.63
	c0.84,0.87,1.86,1.47,3.06,1.82c1.2,0.34,2.38,0.37,3.54,0.07c1.17-0.29,2.19-0.86,3.06-1.69c0.87-0.83,1.48-1.86,1.83-3.07
	c0.26-0.92,0.34-1.84,0.23-2.76c-0.11-0.92-0.42-1.77-0.94-2.55c-0.52-0.78-1.24-1.41-2.16-1.9l-0.48,1.68
	c0.61,0.37,1.08,0.83,1.42,1.37c0.34,0.54,0.54,1.13,0.6,1.77c0.06,0.64,0,1.31-0.2,1.99c-0.26,0.91-0.71,1.67-1.35,2.29
	c-0.64,0.62-1.4,1.04-2.29,1.25c-0.89,0.21-1.82,0.18-2.79-0.1c-0.97-0.28-1.78-0.74-2.42-1.39c-0.65-0.65-1.08-1.41-1.3-2.28
	c-0.22-0.87-0.2-1.76,0.06-2.66c0.2-0.69,0.49-1.29,0.89-1.81c0.39-0.51,0.88-0.91,1.45-1.19c0.57-0.28,1.22-0.42,1.93-0.41
	l0.48-1.67c-1.04-0.07-1.99,0.09-2.84,0.48c-0.85,0.39-1.57,0.94-2.14,1.66c-0.58,0.72-1,1.54-1.26,2.45
	c-0.35,1.21-0.37,2.4-0.08,3.57C438.21,1239.74,438.77,1240.76,439.61,1241.63z M476.69,1189.18l-5.7-0.6l-0.6,5.69l5.69,0.6
	L476.69,1189.18z M448.9,1224.25c1.09,0.58,2.25,0.84,3.46,0.77c1.22-0.06,2.35-0.43,3.39-1.08c1.04-0.66,1.86-1.54,2.45-2.66
	c0.6-1.12,0.88-2.3,0.84-3.53c-0.03-1.23-0.36-2.37-0.99-3.42c-0.63-1.05-1.49-1.86-2.58-2.44c-1.11-0.59-2.27-0.85-3.48-0.78
	c-1.22,0.06-2.34,0.43-3.38,1.09c-1.04,0.66-1.86,1.55-2.45,2.68c-0.59,1.12-0.87,2.29-0.84,3.52c0.03,1.23,0.36,2.36,0.99,3.41
	C446.93,1222.84,447.79,1223.66,448.9,1224.25z M447.54,1215.61c0.45-0.86,1.08-1.53,1.87-2.03c0.79-0.5,1.65-0.77,2.58-0.81
	c0.93-0.04,1.83,0.17,2.69,0.63c0.86,0.46,1.53,1.08,2.02,1.88c0.48,0.79,0.74,1.65,0.76,2.59c0.02,0.93-0.19,1.83-0.65,2.68
	c-0.45,0.84-1.07,1.52-1.85,2.01c-0.79,0.5-1.64,0.77-2.57,0.81c-0.93,0.04-1.82-0.16-2.69-0.62c-0.86-0.46-1.53-1.08-2.02-1.88
	c-0.49-0.79-0.74-1.66-0.77-2.59C446.88,1217.34,447.09,1216.45,447.54,1215.61z M510.14,1176.74l-0.57-1.43l-6.59,2.61l-1.62-4.08
	l5.66-2.24l-0.54-1.36l-5.66,2.24l-1.53-3.86l6.51-2.58l-0.57-1.44l-8.09,3.21l4.83,12.17L510.14,1176.74z M627.72,1236.52
	l4.73-1.34l0.87,3.07c0.02,0.07,0.04,0.14,0.06,0.2c0.02,0.07,0.04,0.14,0.07,0.2l-3.95,4.14l0.54,1.89l4.12-4.45
	c0.31,0.51,0.69,0.93,1.14,1.25c0.46,0.32,0.97,0.52,1.54,0.6c0.57,0.09,1.15,0.04,1.76-0.13c0.78-0.22,1.42-0.59,1.92-1.12
	c0.5-0.52,0.82-1.15,0.97-1.88c0.15-0.73,0.11-1.49-0.12-2.3l-1.52-5.35l-12.6,3.57L627.72,1236.52z M638.84,1233.37l1.03,3.65
	c0.14,0.49,0.16,0.96,0.05,1.42c-0.1,0.46-0.31,0.86-0.62,1.19c-0.31,0.33-0.71,0.57-1.18,0.7c-0.49,0.14-0.95,0.15-1.39,0.03
	c-0.44-0.12-0.82-0.34-1.15-0.67c-0.32-0.33-0.56-0.74-0.69-1.23l-1.04-3.68L638.84,1233.37z M595.83,1191.51
	c1.01,0.78,2.12,1.25,3.34,1.42c1.22,0.17,2.4,0.04,3.54-0.4c1.13-0.44,2.08-1.15,2.84-2.13c0.76-0.99,1.22-2.09,1.36-3.3
	c0.14-1.21-0.03-2.38-0.51-3.52c-0.48-1.14-1.22-2.09-2.23-2.87c-1-0.77-2.11-1.25-3.33-1.42c-1.22-0.17-2.39-0.04-3.53,0.4
	c-1.14,0.44-2.09,1.16-2.85,2.15c-0.76,0.98-1.21,2.08-1.34,3.29c-0.14,1.21,0.03,2.38,0.5,3.52
	C594.1,1189.78,594.83,1190.73,595.83,1191.51z M594.75,1185.42c0.11-0.92,0.47-1.77,1.06-2.54c0.6-0.77,1.33-1.33,2.19-1.68
	c0.86-0.35,1.76-0.45,2.68-0.32c0.92,0.13,1.77,0.49,2.52,1.07c0.77,0.59,1.33,1.32,1.69,2.18c0.36,0.86,0.48,1.76,0.37,2.68
	c-0.12,0.92-0.47,1.77-1.07,2.54c-0.6,0.77-1.33,1.33-2.19,1.68c-0.86,0.34-1.76,0.45-2.68,0.32c-0.92-0.13-1.77-0.5-2.53-1.09
	c-0.76-0.58-1.32-1.3-1.68-2.16C594.76,1187.23,594.64,1186.34,594.75,1185.42z M622.03,1217.69c-0.51,0.79-0.77,1.65-0.8,2.59
	c-0.02,0.94,0.19,1.86,0.65,2.76c0.47,0.94,1.09,1.67,1.87,2.2c0.77,0.53,1.63,0.82,2.56,0.86c0.93,0.05,1.86-0.16,2.78-0.63
	l7.17-3.62l-0.77-1.52l-7.07,3.57c-0.64,0.32-1.29,0.48-1.95,0.48c-0.66,0-1.27-0.18-1.83-0.52c-0.56-0.35-1.01-0.86-1.35-1.53
	c-0.35-0.69-0.49-1.36-0.44-2.02c0.06-0.66,0.28-1.25,0.68-1.78c0.39-0.53,0.91-0.96,1.55-1.28l7.06-3.56l-0.76-1.51l-7.17,3.62
	C623.27,1216.27,622.54,1216.9,622.03,1217.69z M631.3,1253.19l12.98-1.7l-0.22-1.69l-12.99,1.7L631.3,1253.19z M573.79,1177.69
	c1.16-0.16,2.18-0.62,3.05-1.36c0.87-0.74,1.52-1.72,1.96-2.95c0.43-1.22,0.55-2.38,0.34-3.51c-0.21-1.12-0.71-2.12-1.51-2.98
	c-0.8-0.86-1.84-1.53-3.13-1.99l-4.51-1.61l-4.4,12.33l4.53,1.62C571.4,1177.71,572.63,1177.86,573.79,1177.69z M571.05,1165.3
	l2.88,1.03c1,0.36,1.81,0.87,2.41,1.53c0.6,0.66,0.98,1.42,1.12,2.28c0.14,0.86,0.04,1.76-0.3,2.71c-0.34,0.95-0.83,1.71-1.48,2.27
	c-0.65,0.56-1.41,0.91-2.28,1.03c-0.87,0.12-1.81,0.01-2.8-0.35l-2.92-1.04L571.05,1165.3z M533.78,1259.47
	c0,1.86,0.79,3.3,2.08,4.56c-2.65,1.04-3.92,2.59-3.92,5.01c0,3.89,3.35,5.38,7.46,5.38c3.1,0,5.01-1.16,6.28-2.76
	c0.87,1.13,1.46,2.28,1.46,3.97c0,2.14-0.96,4.08-3.07,4.08c-0.9,0-1.21-0.34-1.21-0.79c0-0.2,0.03-0.37,0.11-0.56h0.93
	c0.11-0.4,0.17-0.73,0.17-1.01c0-1.16-0.7-1.72-1.83-1.72c-1.15,0-2.03,0.82-2.03,2.2c0,1.44,1.13,2.7,3.55,2.7
	c3.49,0,6.34-3.16,6.34-6.96c0-2.48-1.04-4.03-2.39-5.52c0.42-1.58,0.65-3.1,0.76-4.7h1.89v-0.76h-4.9v0.76h2.11
	c-0.06,1.32-0.25,2.62-0.62,4c-1.18-1.1-2.48-1.97-3.86-2.82c-1.07-0.68-2.03-1.3-2.96-1.94c2.9-1.18,4.54-2.79,4.54-4.9
	c0-2.14-1.55-3.58-4.82-3.58C536.79,1254.12,533.78,1255.84,533.78,1259.47z M541.35,1268.01c1.61,1.04,2.76,1.86,3.69,2.9
	c-1.01,1.35-2.54,2.34-4.87,2.34c-2.85,0-4.62-1.35-4.62-4.93c0-1.94,0.28-2.93,0.9-3.69
	C537.75,1265.78,539.47,1266.77,541.35,1268.01z M542.17,1257.75c0,1.86-0.53,3.38-2.59,4.42c-1.89-1.41-2.68-2.62-2.68-4.37
	c0-2.28,1.52-3.07,2.87-3.07C541.21,1254.74,542.17,1255.67,542.17,1257.75z M550.16,1172.25c0.75,0.56,1.63,0.91,2.64,1.05
	c1.04,0.15,1.99,0.06,2.87-0.27s1.6-0.87,2.18-1.6c0.57-0.74,0.93-1.62,1.08-2.64l1.14-7.95l-1.69-0.24l-1.13,7.84
	c-0.1,0.71-0.34,1.34-0.72,1.88c-0.38,0.54-0.87,0.94-1.48,1.2c-0.61,0.26-1.28,0.34-2.03,0.23c-0.76-0.11-1.4-0.38-1.9-0.8
	c-0.51-0.42-0.86-0.95-1.07-1.57c-0.21-0.63-0.26-1.3-0.16-2.01l1.12-7.82l-1.68-0.24l-1.14,7.95c-0.15,1.05-0.05,2.01,0.31,2.87
	C548.85,1170.98,549.4,1171.69,550.16,1172.25z M590.59,1172.12l-1.5-0.81l-6.25,11.51l1.5,0.81L590.59,1172.12z M534.8,1160.63
	l0.43,11.56l1.7-0.06l-0.43-11.56l4.15-0.15l-0.06-1.53l-9.99,0.37l0.06,1.53L534.8,1160.63z M549.71,1367.94l-1.02-11.52l-1.7,0.15
	l1.02,11.52l-4.13,0.36l0.14,1.53l9.96-0.88l-0.14-1.53L549.71,1367.94z M626.1,1204.06l-1-1.36l-6.86,5.06
	c-0.49,0.36-0.99,0.58-1.5,0.65c-0.52,0.08-1.01,0.01-1.47-0.19c-0.46-0.21-0.86-0.54-1.2-1.01l-1.1-1.5l-1.24,0.92l1.1,1.49
	c0.54,0.73,1.16,1.27,1.86,1.61s1.44,0.48,2.22,0.39c0.78-0.09,1.53-0.41,2.27-0.95L626.1,1204.06z M601.19,1338.54l5.7,0.6
	l0.6-5.69l-5.7-0.6L601.19,1338.54z M604.06,1290.98c-0.91-0.31-2.46-0.91-3.48-1.75c-2.06-1.69-2.34-7.4-2.34-7.4l-0.02,0.03
	c-0.14-7.23-0.24-14.4-0.24-21.45c0-7.09,0.1-14.25,0.24-21.45l0.02,0.03c0,0,0.27-5.71,2.34-7.4c1.02-0.84,2.57-1.44,3.48-1.75
	c0.44-0.15,0.02-0.23,0.02-0.23l-5.65,0c0,0,0,0,0,0h-9.15h-14.51c-4.98,0-9.27,0.95-12.84,2.86c-3.58,1.91-6.27,4.4-8.09,7.48
	c-1.82,3.08-2.73,6.35-2.73,9.81c0,4.05,1.23,7.71,3.7,10.99c2.46,3.29,5.98,5.54,10.56,6.77c-3.28,1.06-5.91,2.7-7.87,4.92
	c-3.99,4.52-6.07,10.25-10.21,14.72c-3.82,4.13-8.48,7.49-13.6,9.82c-1.14,0.52-2.29,0.97-3.45,1.36
	c-9.53,3.2-19.75,2.28-29.39-0.66c-1.2-0.37-2.57-0.77-4.27-1.38c-0.86-0.31-1.51,0.14-0.85,0.68c2.09,1.71,4.14,2.94,6.49,4.2
	c10.89,5.81,25.71,8.28,37.44,3.59c8.67-3.47,14.96-10.97,18.99-19.18c0.45-0.93,1.02-2.14,1.72-3.65c1.17-2.64,2.21-4.81,3.12-6.51
	c1.6-2.99,4.07-5.66,7.43-6.58c1.85-0.51,3.87-0.65,5.77-0.85c1.72-0.18,2.56-0.25,4.72-0.39c0.43-0.03,0.43-0.2,0-0.24
	c-2.39-0.24-2.82-0.25-4.51-0.43c-3.9-0.41-8.24-0.83-11.39-3.38c-2.02-1.64-3.55-3.69-4.58-6.16c-1.02-2.46-1.54-5.07-1.54-7.83
	c0-3.11,0.66-6.04,1.98-8.8c1.32-2.76,3.29-4.98,5.89-6.69c2.61-1.7,5.76-2.55,9.46-2.55l12.67,0.09
	c0.18,7.98,0.26,16.63,0.26,25.95v6.14v2.83v11.99c-0.05,1.22-0.08,2.56-0.12,3.87c-0.13,1.47-0.62,5.43-2.29,6.8
	c-1.02,0.84-2.57,1.44-3.48,1.75c-0.44,0.15-0.02,0.23-0.02,0.23l5.65,0h9.05l5.65,0C604.08,1291.21,604.5,1291.13,604.06,1290.98z
	 M569.01,1360.29c-0.58-0.37-1.24-0.59-1.97-0.65c-0.73-0.06-1.55-0.06-2.47,0.02c-0.72,0.08-1.34,0.09-1.87,0.04
	c-0.53-0.05-0.97-0.19-1.32-0.42c-0.36-0.24-0.6-0.59-0.72-1.06c-0.14-0.52-0.12-0.98,0.05-1.4c0.17-0.42,0.48-0.78,0.93-1.09
	c0.45-0.31,1.04-0.56,1.76-0.75c0.61-0.16,1.17-0.21,1.69-0.14c0.52,0.07,0.96,0.22,1.33,0.47c0.37,0.25,0.64,0.56,0.82,0.94
	c0.02,0.07,0.05,0.13,0.08,0.19c0.03,0.06,0.05,0.13,0.06,0.19l1.65-0.43c-0.18-0.68-0.53-1.27-1.05-1.77
	c-0.52-0.5-1.2-0.85-2.05-1.02c-0.85-0.18-1.82-0.13-2.91,0.16c-1.03,0.27-1.88,0.65-2.56,1.15c-0.68,0.5-1.14,1.08-1.39,1.75
	c-0.25,0.67-0.28,1.4-0.07,2.19c0.21,0.81,0.6,1.42,1.16,1.82c0.56,0.4,1.2,0.64,1.91,0.73c0.71,0.09,1.5,0.09,2.37-0.01
	c0.82-0.1,1.51-0.13,2.07-0.09c0.56,0.04,1.02,0.17,1.37,0.39c0.35,0.22,0.58,0.55,0.69,0.97c0.1,0.38,0.1,0.75,0,1.1
	c-0.1,0.36-0.34,0.69-0.72,0.99c-0.38,0.31-0.93,0.55-1.66,0.74c-0.62,0.16-1.18,0.21-1.66,0.14c-0.49-0.07-0.89-0.23-1.2-0.5
	c-0.31-0.26-0.52-0.61-0.63-1.03l-1.66,0.44c0.19,0.71,0.53,1.3,1.02,1.75c0.49,0.45,1.12,0.74,1.89,0.86
	c0.76,0.12,1.63,0.05,2.6-0.2c1.06-0.28,1.89-0.66,2.49-1.16c0.6-0.49,0.99-1.05,1.17-1.66c0.18-0.61,0.18-1.25,0.01-1.91
	C570,1361.25,569.6,1360.67,569.01,1360.29z M573.53,1350.57l0.64,1.4l6.44-2.95l1.83,3.99l-5.53,2.53l0.61,1.33l5.53-2.53
	l1.73,3.77l-6.36,2.92l0.65,1.41l7.91-3.63l-5.45-11.91L573.53,1350.57z M628.08,1309.34c-1.06-0.64-2.2-0.96-3.42-0.95
	c-1.22,0-2.36,0.31-3.44,0.91c-1.07,0.6-1.93,1.45-2.59,2.53c-0.65,1.09-1,2.25-1.02,3.48c-0.03,1.23,0.24,2.39,0.81,3.46
	s1.39,1.93,2.45,2.57c1.07,0.64,2.22,0.96,3.44,0.96s2.36-0.31,3.43-0.91c1.07-0.61,1.94-1.46,2.59-2.55
	c0.65-1.08,0.99-2.24,1.02-3.47c0.03-1.23-0.24-2.38-0.81-3.46C629.97,1310.84,629.15,1309.98,628.08,1309.34z M628.99,1318.04
	c-0.5,0.83-1.16,1.48-1.97,1.93c-0.81,0.46-1.69,0.68-2.62,0.68c-0.93-0.01-1.81-0.26-2.65-0.77c-0.84-0.5-1.48-1.16-1.92-1.98
	c-0.44-0.82-0.65-1.69-0.63-2.62c0.02-0.93,0.29-1.81,0.79-2.65c0.49-0.82,1.14-1.46,1.95-1.92c0.81-0.46,1.68-0.68,2.61-0.68
	c0.93,0.01,1.81,0.26,2.65,0.76c0.84,0.5,1.48,1.16,1.92,1.98c0.45,0.82,0.66,1.69,0.63,2.63
	C629.74,1316.34,629.48,1317.22,628.99,1318.04z M447.4,1272.58l-0.14-4.81c-0.04-1.36-0.35-2.55-0.92-3.57
	c-0.58-1.02-1.37-1.81-2.38-2.35c-1.01-0.54-2.16-0.79-3.46-0.76c-1.29,0.04-2.42,0.36-3.39,0.96c-0.97,0.6-1.72,1.43-2.23,2.49
	c-0.52,1.06-0.75,2.27-0.71,3.64l0.14,4.78L447.4,1272.58z M436.24,1265.38c0.4-0.8,0.97-1.42,1.72-1.87
	c0.75-0.44,1.63-0.68,2.63-0.71s1.89,0.15,2.65,0.55c0.76,0.4,1.36,0.98,1.79,1.75c0.43,0.77,0.66,1.68,0.69,2.74l0.09,3.1
	l-10.03,0.29l-0.09-3.06C435.66,1267.12,435.85,1266.19,436.24,1265.38z M645.07,1250l0.16,1.22l2.49,1.39l0.26-1.31L645.07,1250z
	 M631.97,1265.96c-0.03,1.36,0.22,2.57,0.74,3.62c0.52,1.05,1.28,1.87,2.25,2.47c0.98,0.59,2.12,0.9,3.41,0.93
	c1.29,0.03,2.44-0.24,3.44-0.79c1-0.55,1.79-1.35,2.35-2.38c0.57-1.03,0.87-2.23,0.9-3.6l0.1-4.78l-13.09-0.28L631.97,1265.96z
	 M633.57,1262.85l10.03,0.21l-0.06,3.06c-0.02,1.06-0.25,1.99-0.69,2.77c-0.44,0.78-1.04,1.37-1.81,1.78
	c-0.77,0.4-1.66,0.59-2.67,0.57c-1.01-0.02-1.88-0.25-2.62-0.69c-0.74-0.44-1.3-1.05-1.69-1.84c-0.39-0.79-0.58-1.71-0.55-2.77
	L633.57,1262.85z M638.26,1292.48c-0.79-0.91-1.78-1.57-2.96-1.97c-1.18-0.41-2.36-0.49-3.54-0.26c-1.18,0.23-2.23,0.74-3.14,1.53
	c-0.92,0.79-1.58,1.78-1.99,2.97c-0.31,0.9-0.44,1.82-0.38,2.74c0.06,0.92,0.33,1.79,0.8,2.59c0.48,0.8,1.16,1.47,2.06,2.01
	l0.57-1.65c-0.59-0.41-1.03-0.89-1.34-1.44c-0.31-0.56-0.48-1.16-0.51-1.8c-0.03-0.64,0.07-1.3,0.3-1.98
	c0.31-0.89,0.8-1.63,1.47-2.22c0.67-0.59,1.46-0.96,2.35-1.13c0.89-0.17,1.82-0.08,2.78,0.25c0.95,0.33,1.73,0.83,2.35,1.51
	c0.61,0.68,1,1.46,1.18,2.34c0.17,0.88,0.11,1.76-0.2,2.65c-0.23,0.68-0.56,1.27-0.98,1.76c-0.42,0.49-0.92,0.86-1.51,1.11
	c-0.58,0.25-1.24,0.35-1.95,0.31l-0.56,1.64c1.04,0.12,1.99,0.02,2.86-0.33c0.87-0.34,1.61-0.86,2.23-1.55
	c0.61-0.69,1.08-1.49,1.38-2.39c0.41-1.19,0.5-2.38,0.26-3.56C639.56,1294.44,639.05,1293.39,638.26,1292.48z M630.42,1281.45
	l12.9,2.27l0.3-1.68l-12.9-2.27L630.42,1281.45z M584.53,1297.02c0.66-0.54,0.01-0.99-0.85-0.68c-1.7,0.61-3.07,1.01-4.27,1.38
	c-8.61,2.63-17.69,3.62-26.32,1.53c-2.43,2.56-5.27,4.92-8.64,6.79c11,2.87,23.86,0.39,33.59-4.81
	C580.39,1299.95,582.44,1298.72,584.53,1297.02z M467.43,1323.03c-0.72-0.31-1.46-0.4-2.23-0.27c-0.77,0.13-1.51,0.49-2.22,1.07
	l-6.66,5.46l1.07,1.3l6.59-5.4c0.47-0.38,0.96-0.63,1.47-0.73c0.51-0.11,1-0.06,1.47,0.12c0.47,0.18,0.89,0.5,1.25,0.95l1.18,1.44
	l1.19-0.98l-1.17-1.43C468.8,1323.85,468.15,1323.34,467.43,1323.03z M459.69,1315.46c0.47-0.81,0.69-1.69,0.66-2.62
	c-0.02-0.94-0.29-1.84-0.79-2.72c-0.52-0.91-1.18-1.61-1.98-2.1c-0.8-0.49-1.67-0.73-2.6-0.73c-0.93,0-1.85,0.26-2.75,0.77
	l-6.97,3.99l0.85,1.48l6.88-3.93c0.62-0.36,1.26-0.55,1.92-0.58s1.28,0.11,1.85,0.43c0.58,0.32,1.05,0.81,1.43,1.46
	c0.38,0.67,0.56,1.33,0.54,1.99s-0.22,1.26-0.58,1.81c-0.37,0.55-0.86,1-1.49,1.36l-6.86,3.92l0.84,1.47l6.97-3.98
	C458.53,1316.95,459.22,1316.28,459.69,1315.46z M453.02,1296.93l-4.66,1.59l-1.03-3.03c-0.02-0.07-0.05-0.13-0.07-0.2
	c-0.02-0.07-0.05-0.13-0.08-0.2l3.73-4.34l-0.63-1.86l-3.89,4.66c-0.33-0.5-0.73-0.89-1.21-1.19c-0.47-0.29-0.99-0.47-1.57-0.52
	c-0.57-0.06-1.16,0.02-1.75,0.22c-0.77,0.26-1.38,0.67-1.85,1.22c-0.47,0.55-0.76,1.19-0.88,1.93c-0.11,0.73-0.03,1.5,0.24,2.29
	l1.79,5.27l12.4-4.22L453.02,1296.93z M442.07,1300.65l-1.22-3.59c-0.16-0.48-0.21-0.95-0.13-1.42c0.08-0.46,0.27-0.87,0.56-1.22
	c0.3-0.35,0.68-0.6,1.15-0.76c0.48-0.16,0.94-0.2,1.39-0.11c0.45,0.09,0.84,0.3,1.18,0.61c0.34,0.32,0.59,0.71,0.76,1.19l1.23,3.62
	L442.07,1300.65z M432.21,1281.92l-0.2,1.32l2.98,1.15l-0.22-1.21L432.21,1281.92z M448.58,1280.49l-12.88,2.37l0.31,1.68
	l12.88-2.37L448.58,1280.49z M533.8,1357.12c-0.78-0.52-1.68-0.82-2.69-0.91c-1.04-0.09-1.99,0.05-2.85,0.42
	c-0.86,0.38-1.56,0.95-2.09,1.71c-0.53,0.77-0.85,1.66-0.94,2.69l-0.73,8l1.7,0.16l0.72-7.89c0.07-0.72,0.27-1.35,0.62-1.91
	c0.35-0.56,0.82-0.98,1.41-1.27s1.26-0.4,2.02-0.33c0.77,0.07,1.41,0.3,1.94,0.7c0.53,0.4,0.91,0.9,1.15,1.52
	c0.24,0.61,0.33,1.28,0.26,2l-0.72,7.87l1.69,0.15l0.73-8c0.1-1.05-0.06-2.01-0.46-2.86
	C535.18,1358.32,534.59,1357.64,533.8,1357.12z M493.44,1359.35l1.54,0.73l5.64-11.82l-1.54-0.73L493.44,1359.35z M509.9,1352.9
	c-1.15,0.22-2.15,0.73-2.98,1.52c-0.83,0.79-1.43,1.8-1.8,3.04c-0.37,1.24-0.42,2.41-0.15,3.52c0.27,1.11,0.82,2.08,1.66,2.9
	c0.84,0.82,1.92,1.43,3.23,1.82l4.59,1.37l3.75-12.55l-4.61-1.38C512.28,1352.76,511.05,1352.68,509.9,1352.9z M513.27,1365.14
	l-2.93-0.88c-1.02-0.31-1.85-0.77-2.49-1.4c-0.64-0.63-1.05-1.37-1.23-2.22c-0.19-0.85-0.13-1.76,0.16-2.72
	c0.29-0.97,0.74-1.75,1.36-2.34c0.62-0.6,1.36-0.98,2.22-1.14c0.86-0.17,1.8-0.1,2.82,0.2l2.97,0.89L513.27,1365.14z
	 M487.17,1340.25c-1.04-0.72-2.18-1.14-3.41-1.25c-1.23-0.11-2.4,0.08-3.51,0.58c-1.11,0.5-2.02,1.26-2.73,2.28
	c-0.71,1.03-1.11,2.15-1.19,3.37c-0.08,1.22,0.15,2.38,0.69,3.49c0.53,1.11,1.32,2.03,2.37,2.75c1.04,0.72,2.17,1.14,3.39,1.25
	s2.39-0.08,3.5-0.58c1.11-0.5,2.02-1.26,2.74-2.29c0.71-1.02,1.1-2.14,1.18-3.35c0.08-1.22-0.15-2.38-0.68-3.49
	C489,1341.88,488.22,1340.97,487.17,1340.25z M488.57,1346.27c-0.06,0.93-0.38,1.79-0.93,2.59c-0.56,0.8-1.26,1.4-2.1,1.79
	c-0.84,0.39-1.73,0.55-2.66,0.46c-0.93-0.08-1.79-0.4-2.57-0.94c-0.8-0.55-1.4-1.25-1.8-2.09c-0.4-0.84-0.57-1.73-0.5-2.66
	c0.07-0.93,0.38-1.79,0.94-2.59c0.56-0.8,1.26-1.4,2.1-1.79s1.73-0.54,2.66-0.45c0.93,0.08,1.79,0.4,2.59,0.96
	c0.79,0.55,1.38,1.24,1.78,2.08C488.46,1344.46,488.63,1345.34,488.57,1346.27z M496.5,1290.98c-0.91-0.31-2.46-0.91-3.48-1.75
	c-1.67-1.37-2.16-5.33-2.29-6.8c-0.04-1.31-0.07-2.65-0.12-3.87v-11.99v-2.83v-6.14c0-9.32,0.09-17.97,0.26-25.95l12.67-0.09
	c3.7,0,6.85,0.85,9.46,2.55c2.61,1.7,4.57,3.93,5.89,6.69c1.32,2.76,1.98,5.69,1.98,8.8c0,2.76-0.51,5.36-1.54,7.83
	c-1.03,2.46-2.55,4.52-4.58,6.16c-3.15,2.55-7.5,2.97-11.39,3.38c-1.68,0.18-2.12,0.19-4.51,0.43c-0.43,0.04-0.43,0.22,0,0.24
	c2.15,0.14,3,0.2,4.72,0.39c1.9,0.2,3.93,0.35,5.77,0.85c3.36,0.92,5.83,3.59,7.43,6.58c0.91,1.7,1.95,3.87,3.12,6.51
	c0.69,1.51,1.26,2.73,1.72,3.65c1.75,3.58,3.96,6.99,6.58,10.02c0.33-0.1,0.68-0.18,1.01-0.29c1.06-0.36,2.11-0.77,3.15-1.24
	c1.75-0.8,3.43-1.77,5.06-2.83c-1.57-1.27-3.07-2.61-4.44-4.09c-4.14-4.48-6.22-10.21-10.21-14.72c-1.97-2.23-4.59-3.87-7.87-4.92
	c4.57-1.23,8.09-3.49,10.55-6.77c2.46-3.28,3.7-6.95,3.7-10.99c0-3.46-0.91-6.73-2.73-9.81c-1.82-3.08-4.52-5.57-8.09-7.48
	c-3.58-1.91-7.86-2.86-12.84-2.86h-14.51h-9.15c0,0,0,0,0,0l-5.65,0c0,0-0.42,0.08,0.02,0.23c0.91,0.31,2.46,0.91,3.48,1.75
	c2.06,1.69,2.34,7.4,2.34,7.4l0.02-0.03c0.14,7.2,0.24,14.37,0.24,21.45c0,7.06-0.1,14.23-0.24,21.45l-0.02-0.03
	c0,0-0.27,5.71-2.34,7.4c-1.02,0.84-2.57,1.44-3.48,1.75c-0.44,0.15-0.02,0.23-0.02,0.23l5.65,0h9.05l5.65,0
	C496.51,1291.21,496.94,1291.13,496.5,1290.98z"/>
</svg>
